<svg id="visual" viewBox="0 0 900 450" preserveAspectRatio="none" width="900" height="450" xmlns="http://www.w3.org/2000/svg" xmlns:xlink="http://www.w3.org/1999/xlink" version="1.1"><path d="M0 115L129 115L129 106L257 106L257 180L386 180L386 159L514 159L514 186L643 186L643 218L771 218L771 81L900 81L900 99L900 451L900 451L771 451L771 451L643 451L643 451L514 451L514 451L386 451L386 451L257 451L257 451L129 451L129 451L0 451Z" fill="#bfab27"></path><path d="M0 304L129 304L129 208L257 208L257 252L386 252L386 275L514 275L514 242L643 242L643 206L771 206L771 226L900 226L900 285L900 451L900 451L771 451L771 451L643 451L643 451L514 451L514 451L386 451L386 451L257 451L257 451L129 451L129 451L0 451Z" fill="#dec423"></path><path d="M0 358L129 358L129 291L257 291L257 293L386 293L386 332L514 332L514 373L643 373L643 340L771 340L771 343L900 343L900 372L900 451L900 451L771 451L771 451L643 451L643 451L514 451L514 451L386 451L386 451L257 451L257 451L129 451L129 451L0 451Z" fill="#fede1c"></path></svg>
