<svg id="visual" viewBox="0 0 900 450" width="900" height="450" preserveAspectRatio="none" xmlns="http://www.w3.org/2000/svg" xmlns:xlink="http://www.w3.org/1999/xlink" version="1.1"><path d="M0 181L129 181L129 142L257 142L257 92L386 92L386 181L514 181L514 122L643 122L643 139L771 139L771 199L900 199L900 115L900 451L900 451L771 451L771 451L643 451L643 451L514 451L514 451L386 451L386 451L257 451L257 451L129 451L129 451L0 451Z" fill="#646464"></path><path d="M0 277L129 277L129 197L257 197L257 251L386 251L386 253L514 253L514 301L643 301L643 220L771 220L771 242L900 242L900 195L900 451L900 451L771 451L771 451L643 451L643 451L514 451L514 451L386 451L386 451L257 451L257 451L129 451L129 451L0 451Z" fill="#aeaeae"></path><path d="M0 289L129 289L129 345L257 345L257 320L386 320L386 361L514 361L514 314L643 314L643 318L771 318L771 342L900 342L900 295L900 451L900 451L771 451L771 451L643 451L643 451L514 451L514 451L386 451L386 451L257 451L257 451L129 451L129 451L0 451Z" fill="#ffffff"></path></svg>
