<svg width="1024" height="325" viewBox="0 0 1024 325" fill="none" xmlns="http://www.w3.org/2000/svg">
<g clip-path="url(#clip0_20_2)">
<path d="M145.76 282.48C127.467 282.48 111.88 279.587 99 273.8C86.12 268.013 76.1333 259.8 69.04 249.16C61.9467 238.52 57.9333 225.92 57 211.36L111.6 208.84C112.533 215.373 114.4 220.973 117.2 225.64C120 230.12 123.733 233.573 128.4 236C133.253 238.24 139.227 239.36 146.32 239.36C151.92 239.36 156.68 238.8 160.6 237.68C164.52 236.373 167.507 234.413 169.56 231.8C171.613 229.187 172.64 225.92 172.64 222C172.64 218.453 171.707 215.373 169.84 212.76C168.16 209.96 164.707 207.533 159.48 205.48C154.44 203.24 146.88 201.093 136.8 199.04C118.693 195.307 104.04 191.013 92.84 186.16C81.64 181.12 73.4267 174.68 68.2 166.84C63.16 159 60.64 149.013 60.64 136.88C60.64 124.56 63.8133 113.733 70.16 104.4C76.5067 95.0667 85.6533 87.7867 97.6 82.56C109.547 77.3333 123.92 74.72 140.72 74.72C158.453 74.72 173.293 77.7067 185.24 83.68C197.187 89.6533 206.427 97.8667 212.96 108.32C219.68 118.773 223.693 130.907 225 144.72L170.96 146.96C170.587 140.8 169.093 135.573 166.48 131.28C163.867 126.987 160.32 123.72 155.84 121.48C151.547 119.053 146.32 117.84 140.16 117.84C132.32 117.84 126.253 119.427 121.96 122.6C117.667 125.773 115.52 129.973 115.52 135.2C115.52 139.307 116.547 142.76 118.6 145.56C120.84 148.36 124.387 150.693 129.24 152.56C134.28 154.427 141.093 156.107 149.68 157.6C169.28 160.96 184.773 165.533 196.16 171.32C207.547 177.107 215.573 184.013 220.24 192.04C225.093 200.067 227.52 209.307 227.52 219.76C227.52 232.64 224.253 243.84 217.72 253.36C211.373 262.693 202.04 269.88 189.72 274.92C177.587 279.96 162.933 282.48 145.76 282.48ZM268.665 278V123.16H210.705V79.2H381.785V123.16H323.825V278H268.665ZM462.934 282.48C442.028 282.48 424.014 278.28 408.894 269.88C393.774 261.48 382.201 249.533 374.174 234.04C366.148 218.547 362.134 200.16 362.134 178.88C362.134 157.6 366.148 139.213 374.174 123.72C382.201 108.04 393.774 96 408.894 87.6C424.014 79.0133 442.028 74.72 462.934 74.72C484.028 74.72 502.041 79.0133 516.974 87.6C532.094 96 543.668 108.04 551.694 123.72C559.721 139.213 563.734 157.6 563.734 178.88C563.734 200.16 559.721 218.547 551.694 234.04C543.668 249.533 532.094 261.48 516.974 269.88C502.041 278.28 484.028 282.48 462.934 282.48ZM462.934 238.52C472.268 238.52 480.201 236.187 486.734 231.52C493.454 226.853 498.588 220.133 502.134 211.36C505.681 202.4 507.454 191.573 507.454 178.88C507.454 166.187 505.681 155.36 502.134 146.4C498.588 137.44 493.454 130.627 486.734 125.96C480.201 121.107 472.268 118.68 462.934 118.68C453.601 118.68 445.574 121.107 438.854 125.96C432.321 130.627 427.281 137.44 423.734 146.4C420.188 155.36 418.414 166.187 418.414 178.88C418.414 191.573 420.188 202.4 423.734 211.36C427.281 220.133 432.321 226.853 438.854 231.52C445.574 236.187 453.601 238.52 462.934 238.52ZM564.918 278V79.2H637.998C671.411 79.2 697.078 87.88 714.998 105.24C732.918 122.413 741.878 146.96 741.878 178.88C741.878 210.613 733.011 235.067 715.278 252.24C697.731 269.413 672.531 278 639.678 278H564.918ZM619.798 234.04H637.998C654.611 234.04 666.651 229.56 674.118 220.6C681.771 211.64 685.598 197.64 685.598 178.6C685.598 159.56 681.771 145.56 674.118 136.6C666.651 127.64 654.611 123.16 637.998 123.16H619.798V234.04ZM743.221 278V79.2H798.101V278H743.221ZM900.227 282.48C879.32 282.48 861.307 278.28 846.187 269.88C831.067 261.48 819.493 249.533 811.467 234.04C803.44 218.547 799.427 200.16 799.427 178.88C799.427 157.6 803.44 139.213 811.467 123.72C819.493 108.04 831.067 96 846.187 87.6C861.307 79.0133 879.32 74.72 900.227 74.72C921.32 74.72 939.333 79.0133 954.267 87.6C969.387 96 980.96 108.04 988.987 123.72C997.013 139.213 1001.03 157.6 1001.03 178.88C1001.03 200.16 997.013 218.547 988.987 234.04C980.96 249.533 969.387 261.48 954.267 269.88C939.333 278.28 921.32 282.48 900.227 282.48ZM900.227 238.52C909.56 238.52 917.493 236.187 924.027 231.52C930.747 226.853 935.88 220.133 939.427 211.36C942.973 202.4 944.747 191.573 944.747 178.88C944.747 166.187 942.973 155.36 939.427 146.4C935.88 137.44 930.747 130.627 924.027 125.96C917.493 121.107 909.56 118.68 900.227 118.68C890.893 118.68 882.867 121.107 876.147 125.96C869.613 130.627 864.573 137.44 861.027 146.4C857.48 155.36 855.707 166.187 855.707 178.88C855.707 191.573 857.48 202.4 861.027 211.36C864.573 220.133 869.613 226.853 876.147 231.52C882.867 236.187 890.893 238.52 900.227 238.52Z" fill="white"/>
<path d="M99 273.8L95.7215 281.097L95.7215 281.097L99 273.8ZM69.04 249.16L62.3836 253.598L62.3836 253.598L69.04 249.16ZM57 211.36L56.6312 203.369L48.4954 203.744L49.0164 211.872L57 211.36ZM111.6 208.84L119.52 207.709L118.492 200.513L111.231 200.849L111.6 208.84ZM117.2 225.64L110.34 229.756L110.377 229.818L110.416 229.88L117.2 225.64ZM128.4 236L124.709 243.098L124.876 243.185L125.048 243.264L128.4 236ZM160.6 237.68L162.798 245.372L162.965 245.324L163.13 245.269L160.6 237.68ZM169.84 212.76L162.98 216.876L163.144 217.15L163.33 217.41L169.84 212.76ZM159.48 205.48L156.231 212.79L156.391 212.862L156.555 212.926L159.48 205.48ZM136.8 199.04L135.184 206.875L135.194 206.877L135.203 206.879L136.8 199.04ZM92.84 186.16L89.5571 193.455L89.608 193.478L89.6591 193.5L92.84 186.16ZM68.2 166.84L61.4706 171.166L61.5066 171.222L61.5436 171.278L68.2 166.84ZM70.16 104.4L76.7754 108.898L76.7754 108.898L70.16 104.4ZM97.6 82.56L94.3935 75.2307L97.6 82.56ZM185.24 83.68L181.662 90.8354L181.662 90.8354L185.24 83.68ZM212.96 108.32L206.176 112.56L206.203 112.603L206.231 112.646L212.96 108.32ZM225 144.72L225.331 152.713L233.759 152.364L232.964 143.967L225 144.72ZM170.96 146.96L162.975 147.444L163.449 155.278L171.291 154.953L170.96 146.96ZM155.84 121.48L151.904 128.444L152.081 128.545L152.262 128.635L155.84 121.48ZM121.96 122.6L126.715 129.033L126.715 129.033L121.96 122.6ZM118.6 145.56L112.149 150.291L112.248 150.426L112.353 150.558L118.6 145.56ZM129.24 152.56L126.368 160.027L126.415 160.045L126.461 160.062L129.24 152.56ZM149.68 157.6L148.309 165.482L148.319 165.483L148.328 165.485L149.68 157.6ZM196.16 171.32L192.536 178.452L192.536 178.452L196.16 171.32ZM220.24 192.04L213.324 196.061L213.359 196.12L213.394 196.179L220.24 192.04ZM217.72 253.36L211.124 248.833L211.114 248.847L211.105 248.862L217.72 253.36ZM189.72 274.92L186.691 267.516L186.671 267.524L186.651 267.532L189.72 274.92ZM145.76 282.48V274.48C128.277 274.48 113.871 271.711 102.279 266.503L99 273.8L95.7215 281.097C109.889 287.463 126.657 290.48 145.76 290.48V282.48ZM99 273.8L102.279 266.503C90.6231 261.266 81.8695 253.982 75.6964 244.722L69.04 249.16L62.3836 253.598C70.3971 265.618 81.6169 274.76 95.7215 281.097L99 273.8ZM69.04 249.16L75.6964 244.722C69.4872 235.409 65.8399 224.207 64.9836 210.848L57 211.36L49.0164 211.872C50.0267 227.633 54.4062 241.631 62.3836 253.598L69.04 249.16ZM57 211.36L57.3688 219.351L111.969 216.831L111.6 208.84L111.231 200.849L56.6312 203.369L57 211.36ZM111.6 208.84L103.68 209.971C104.733 217.341 106.888 224.003 110.34 229.756L117.2 225.64L124.06 221.524C121.912 217.944 120.333 213.406 119.52 207.709L111.6 208.84ZM117.2 225.64L110.416 229.88C113.97 235.566 118.769 240.009 124.709 243.098L128.4 236L132.091 228.902C128.698 227.138 126.03 224.674 123.984 221.4L117.2 225.64ZM128.4 236L125.048 243.264C131.236 246.12 138.43 247.36 146.32 247.36V239.36V231.36C140.024 231.36 135.27 230.36 131.752 228.736L128.4 236ZM146.32 239.36V247.36C152.407 247.36 157.953 246.756 162.798 245.372L160.6 237.68L158.402 229.988C155.407 230.844 151.433 231.36 146.32 231.36V239.36ZM160.6 237.68L163.13 245.269C168.173 243.588 172.618 240.857 175.851 236.743L169.56 231.8L163.269 226.857C162.395 227.97 160.867 229.158 158.07 230.091L160.6 237.68ZM169.56 231.8L175.851 236.743C179.202 232.477 180.64 227.378 180.64 222H172.64H164.64C164.64 224.462 164.025 225.896 163.269 226.857L169.56 231.8ZM172.64 222H180.64C180.64 216.968 179.287 212.221 176.35 208.11L169.84 212.76L163.33 217.41C164.127 218.525 164.64 219.938 164.64 222H172.64ZM169.84 212.76L176.7 208.644C173.66 203.578 168.21 200.314 162.405 198.034L159.48 205.48L156.555 212.926C161.203 214.752 162.66 216.342 162.98 216.876L169.84 212.76ZM159.48 205.48L162.729 198.17C156.885 195.572 148.647 193.289 138.397 191.201L136.8 199.04L135.203 206.879C145.113 208.898 151.995 210.908 156.231 212.79L159.48 205.48ZM136.8 199.04L138.416 191.205C120.602 187.532 106.531 183.374 96.0209 178.82L92.84 186.16L89.6591 193.5C101.549 198.653 116.785 203.081 135.184 206.875L136.8 199.04ZM92.84 186.16L96.1229 178.865C85.8852 174.258 79.0317 168.665 74.8564 162.402L68.2 166.84L61.5436 171.278C67.8217 180.695 77.3948 187.982 89.5571 193.455L92.84 186.16ZM68.2 166.84L74.9294 162.514C70.9351 156.301 68.64 147.935 68.64 136.88H60.64H52.64C52.64 150.091 55.3849 161.699 61.4706 171.166L68.2 166.84ZM60.64 136.88H68.64C68.64 126.011 71.4136 116.783 76.7754 108.898L70.16 104.4L63.5446 99.9015C56.2131 110.683 52.64 123.109 52.64 136.88H60.64ZM70.16 104.4L76.7754 108.898C82.15 100.995 90.0212 94.6078 100.807 89.8893L97.6 82.56L94.3935 75.2307C81.2854 80.9655 70.8633 89.1387 63.5446 99.9015L70.16 104.4ZM97.6 82.56L100.807 89.8893C111.496 85.2128 124.718 82.72 140.72 82.72V74.72V66.72C123.122 66.72 107.598 69.4539 94.3935 75.2307L97.6 82.56ZM140.72 74.72V82.72C157.601 82.72 171.129 85.5688 181.662 90.8354L185.24 83.68L188.818 76.5246C175.458 69.8445 159.306 66.72 140.72 66.72V74.72ZM185.24 83.68L181.662 90.8354C192.406 96.2074 200.488 103.459 206.176 112.56L212.96 108.32L219.744 104.08C212.366 92.2745 201.967 83.0992 188.818 76.5246L185.24 83.68ZM212.96 108.32L206.231 112.646C212.182 121.904 215.835 132.782 217.036 145.473L225 144.72L232.964 143.967C231.552 129.031 227.178 115.643 219.689 103.994L212.96 108.32ZM225 144.72L224.669 136.727L170.629 138.967L170.96 146.96L171.291 154.953L225.331 152.713L225 144.72ZM170.96 146.96L178.945 146.476C178.511 139.308 176.742 132.753 173.314 127.12L166.48 131.28L159.646 135.44C161.445 138.394 162.662 142.292 162.975 147.444L170.96 146.96ZM166.48 131.28L173.314 127.12C169.921 121.547 165.248 117.24 159.418 114.325L155.84 121.48L152.262 128.635C155.392 130.2 157.812 132.426 159.646 135.44L166.48 131.28ZM155.84 121.48L159.776 114.515C154.018 111.261 147.361 109.84 140.16 109.84V117.84V125.84C145.279 125.84 149.075 126.846 151.904 128.444L155.84 121.48ZM140.16 117.84V109.84C131.375 109.84 123.385 111.599 117.205 116.167L121.96 122.6L126.715 129.033C129.122 127.255 133.265 125.84 140.16 125.84V117.84ZM121.96 122.6L117.205 116.167C110.922 120.81 107.52 127.372 107.52 135.2H115.52H123.52C123.52 132.575 124.411 130.737 126.715 129.033L121.96 122.6ZM115.52 135.2H107.52C107.52 140.688 108.915 145.881 112.149 150.291L118.6 145.56L125.051 140.829C124.178 139.639 123.52 137.925 123.52 135.2H115.52ZM118.6 145.56L112.353 150.558C115.791 154.855 120.75 157.866 126.368 160.027L129.24 152.56L132.112 145.093C128.023 143.521 125.889 141.865 124.847 140.562L118.6 145.56ZM129.24 152.56L126.461 160.062C132.15 162.169 139.499 163.949 148.309 165.482L149.68 157.6L151.051 149.718C142.688 148.264 136.41 146.684 132.019 145.058L129.24 152.56ZM149.68 157.6L148.328 165.485C167.526 168.776 182.147 173.172 192.536 178.452L196.16 171.32L199.784 164.188C187.4 157.894 171.034 153.144 151.032 149.715L149.68 157.6ZM196.16 171.32L192.536 178.452C203.047 183.794 209.672 189.78 213.324 196.061L220.24 192.04L227.156 188.019C221.475 178.247 212.046 170.42 199.784 164.188L196.16 171.32ZM220.24 192.04L213.394 196.179C217.408 202.818 219.52 210.594 219.52 219.76H227.52H235.52C235.52 208.019 232.778 197.315 227.086 187.901L220.24 192.04ZM227.52 219.76H219.52C219.52 231.218 216.639 240.797 211.124 248.833L217.72 253.36L224.316 257.887C231.868 246.883 235.52 234.062 235.52 219.76H227.52ZM217.72 253.36L211.105 248.862C205.791 256.676 197.822 262.962 186.691 267.516L189.72 274.92L192.749 282.324C206.258 276.798 216.956 268.711 224.335 257.858L217.72 253.36ZM189.72 274.92L186.651 267.532C175.739 272.065 162.188 274.48 145.76 274.48V282.48V290.48C163.679 290.48 179.434 287.855 192.789 282.308L189.72 274.92ZM268.665 278H260.665V286H268.665V278ZM268.665 123.16H276.665V115.16H268.665V123.16ZM210.705 123.16H202.705V131.16H210.705V123.16ZM210.705 79.2V71.2H202.705V79.2H210.705ZM381.785 79.2H389.785V71.2H381.785V79.2ZM381.785 123.16V131.16H389.785V123.16H381.785ZM323.825 123.16V115.16H315.825V123.16H323.825ZM323.825 278V286H331.825V278H323.825ZM268.665 278H276.665V123.16H268.665H260.665V278H268.665ZM268.665 123.16V115.16H210.705V123.16V131.16H268.665V123.16ZM210.705 123.16H218.705V79.2H210.705H202.705V123.16H210.705ZM210.705 79.2V87.2H381.785V79.2V71.2H210.705V79.2ZM381.785 79.2H373.785V123.16H381.785H389.785V79.2H381.785ZM381.785 123.16V115.16H323.825V123.16V131.16H381.785V123.16ZM323.825 123.16H315.825V278H323.825H331.825V123.16H323.825ZM323.825 278V270H268.665V278V286H323.825V278ZM408.894 269.88L412.78 262.887L412.78 262.887L408.894 269.88ZM374.174 234.04L381.278 230.36L381.278 230.36L374.174 234.04ZM374.174 123.72L381.278 127.4L381.287 127.383L381.296 127.365L374.174 123.72ZM408.894 87.6L412.78 94.5933L412.812 94.575L412.845 94.5565L408.894 87.6ZM516.974 87.6L512.987 94.5352L513.038 94.5646L513.089 94.5933L516.974 87.6ZM551.694 123.72L544.573 127.365L544.582 127.383L544.591 127.4L551.694 123.72ZM551.694 234.04L544.591 230.36L544.591 230.36L551.694 234.04ZM516.974 269.88L513.089 262.887L513.071 262.897L513.052 262.907L516.974 269.88ZM486.734 231.52L482.171 224.949L482.128 224.979L482.084 225.01L486.734 231.52ZM502.134 211.36L509.551 214.358L509.562 214.331L509.573 214.304L502.134 211.36ZM502.134 146.4L509.573 143.456L509.573 143.456L502.134 146.4ZM486.734 125.96L481.964 132.382L482.066 132.458L482.171 132.531L486.734 125.96ZM438.854 125.96L443.504 132.47L443.521 132.458L443.538 132.445L438.854 125.96ZM423.734 146.4L431.173 149.344L431.173 149.344L423.734 146.4ZM423.734 211.36L416.296 214.304L416.307 214.331L416.318 214.358L423.734 211.36ZM438.854 231.52L434.204 238.03L434.248 238.061L434.291 238.091L438.854 231.52ZM462.934 282.48V274.48C443.105 274.48 426.486 270.502 412.78 262.887L408.894 269.88L405.009 276.873C421.542 286.058 440.951 290.48 462.934 290.48V282.48ZM408.894 269.88L412.78 262.887C399.048 255.258 388.588 244.47 381.278 230.36L374.174 234.04L367.071 237.72C375.815 254.597 388.501 267.702 405.009 276.873L408.894 269.88ZM374.174 234.04L381.278 230.36C373.956 216.227 370.134 199.157 370.134 178.88H362.134H354.134C354.134 201.163 358.34 220.866 367.071 237.72L374.174 234.04ZM362.134 178.88H370.134C370.134 158.603 373.956 141.533 381.278 127.4L374.174 123.72L367.071 120.04C358.34 136.894 354.134 156.597 354.134 178.88H362.134ZM374.174 123.72L381.296 127.365C388.614 113.07 399.073 102.208 412.78 94.5933L408.894 87.6L405.009 80.6067C388.476 89.7921 375.789 103.01 367.053 120.075L374.174 123.72ZM408.894 87.6L412.845 94.5565C426.539 86.7799 443.133 82.72 462.934 82.72V74.72V66.72C440.923 66.72 421.49 71.2468 404.944 80.6435L408.894 87.6ZM462.934 74.72V82.72C482.941 82.72 499.511 86.787 512.987 94.5352L516.974 87.6L520.962 80.6647C504.571 71.2397 485.115 66.72 462.934 66.72V74.72ZM516.974 87.6L513.089 94.5933C526.796 102.208 537.255 113.07 544.573 127.365L551.694 123.72L558.816 120.075C550.08 103.01 537.393 89.7921 520.86 80.6067L516.974 87.6ZM551.694 123.72L544.591 127.4C551.913 141.533 555.734 158.603 555.734 178.88H563.734H571.734C571.734 156.597 567.529 136.894 558.798 120.04L551.694 123.72ZM563.734 178.88H555.734C555.734 199.157 551.913 216.227 544.591 230.36L551.694 234.04L558.798 237.72C567.529 220.866 571.734 201.163 571.734 178.88H563.734ZM551.694 234.04L544.591 230.36C537.281 244.47 526.821 255.258 513.089 262.887L516.974 269.88L520.86 276.873C537.368 267.702 550.054 254.597 558.798 237.72L551.694 234.04ZM516.974 269.88L513.052 262.907C499.564 270.495 482.968 274.48 462.934 274.48V282.48V290.48C485.087 290.48 504.519 286.065 520.896 276.853L516.974 269.88ZM462.934 238.52V246.52C473.655 246.52 483.283 243.817 491.384 238.03L486.734 231.52L482.084 225.01C477.119 228.557 470.88 230.52 462.934 230.52V238.52ZM486.734 231.52L491.298 238.091C499.487 232.404 505.515 224.343 509.551 214.358L502.134 211.36L494.718 208.362C491.661 215.923 487.422 221.303 482.171 224.949L486.734 231.52ZM502.134 211.36L509.573 214.304C513.588 204.162 515.454 192.279 515.454 178.88H507.454H499.454C499.454 190.868 497.774 200.638 494.696 208.416L502.134 211.36ZM507.454 178.88H515.454C515.454 165.481 513.588 153.598 509.573 143.456L502.134 146.4L494.696 149.344C497.774 157.122 499.454 166.892 499.454 178.88H507.454ZM502.134 146.4L509.573 143.456C505.551 133.296 499.529 125.105 491.298 119.389L486.734 125.96L482.171 132.531C487.38 136.148 491.624 141.584 494.696 149.344L502.134 146.4ZM486.734 125.96L491.505 119.538C483.395 113.514 473.723 110.68 462.934 110.68V118.68V126.68C470.812 126.68 477.007 128.7 481.964 132.382L486.734 125.96ZM462.934 118.68V110.68C452.14 110.68 442.423 113.515 434.17 119.475L438.854 125.96L443.538 132.445C448.726 128.699 455.062 126.68 462.934 126.68V118.68ZM438.854 125.96L434.204 119.45C426.186 125.178 420.295 133.354 416.296 143.456L423.734 146.4L431.173 149.344C434.267 141.526 438.456 136.076 443.504 132.47L438.854 125.96ZM423.734 146.4L416.296 143.456C412.281 153.598 410.414 165.481 410.414 178.88H418.414H426.414C426.414 166.892 428.094 157.122 431.173 149.344L423.734 146.4ZM418.414 178.88H410.414C410.414 192.279 412.281 204.162 416.296 214.304L423.734 211.36L431.173 208.416C428.094 200.638 426.414 190.868 426.414 178.88H418.414ZM423.734 211.36L416.318 214.358C420.331 224.286 426.227 232.332 434.204 238.03L438.854 231.52L443.504 225.01C438.415 221.375 434.231 215.981 431.151 208.362L423.734 211.36ZM438.854 231.52L434.291 238.091C442.534 243.815 452.208 246.52 462.934 246.52V238.52V230.52C454.995 230.52 448.615 228.558 443.418 224.949L438.854 231.52ZM564.918 278H556.918V286H564.918V278ZM564.918 79.2V71.2H556.918V79.2H564.918ZM714.998 105.24L709.431 110.986L709.447 111.001L709.463 111.016L714.998 105.24ZM715.278 252.24L709.712 246.493L709.697 246.508L709.682 246.523L715.278 252.24ZM619.798 234.04H611.798V242.04H619.798V234.04ZM674.118 220.6L668.035 215.404L668.003 215.441L667.972 215.479L674.118 220.6ZM674.118 136.6L667.972 141.721L668.003 141.759L668.035 141.796L674.118 136.6ZM619.798 123.16V115.16H611.798V123.16H619.798ZM564.918 278H572.918V79.2H564.918H556.918V278H564.918ZM564.918 79.2V87.2H637.998V79.2V71.2H564.918V79.2ZM637.998 79.2V87.2C670.057 87.2 693.453 95.507 709.431 110.986L714.998 105.24L720.564 99.4941C700.702 80.253 672.765 71.2 637.998 71.2V79.2ZM714.998 105.24L709.463 111.016C725.39 126.279 733.878 148.484 733.878 178.88H741.878H749.878C749.878 145.436 740.446 118.547 720.533 99.4641L714.998 105.24ZM741.878 178.88H733.878C733.878 209.097 725.477 231.226 709.712 246.493L715.278 252.24L720.843 257.987C740.545 238.907 749.878 212.129 749.878 178.88H741.878ZM715.278 252.24L709.682 246.523C694.08 261.793 671.167 270 639.678 270V278V286C673.896 286 701.382 277.034 720.874 257.957L715.278 252.24ZM639.678 278V270H564.918V278V286H639.678V278ZM619.798 234.04V242.04H637.998V234.04V226.04H619.798V234.04ZM637.998 234.04V242.04C655.939 242.04 670.715 237.18 680.264 225.721L674.118 220.6L667.972 215.479C662.588 221.94 653.284 226.04 637.998 226.04V234.04ZM674.118 220.6L680.201 225.796C689.655 214.727 693.598 198.446 693.598 178.6H685.598H677.598C677.598 196.834 673.887 208.553 668.035 215.404L674.118 220.6ZM685.598 178.6H693.598C693.598 158.754 689.655 142.473 680.201 131.404L674.118 136.6L668.035 141.796C673.887 148.647 677.598 160.366 677.598 178.6H685.598ZM674.118 136.6L680.264 131.479C670.715 120.02 655.939 115.16 637.998 115.16V123.16V131.16C653.284 131.16 662.588 135.26 667.972 141.721L674.118 136.6ZM637.998 123.16V115.16H619.798V123.16V131.16H637.998V123.16ZM619.798 123.16H611.798V234.04H619.798H627.798V123.16H619.798ZM743.221 278H735.221V286H743.221V278ZM743.221 79.2V71.2H735.221V79.2H743.221ZM798.101 79.2H806.101V71.2H798.101V79.2ZM798.101 278V286H806.101V278H798.101ZM743.221 278H751.221V79.2H743.221H735.221V278H743.221ZM743.221 79.2V87.2H798.101V79.2V71.2H743.221V79.2ZM798.101 79.2H790.101V278H798.101H806.101V79.2H798.101ZM798.101 278V270H743.221V278V286H798.101V278ZM846.187 269.88L850.072 262.887L850.072 262.887L846.187 269.88ZM811.467 234.04L818.57 230.36L818.57 230.36L811.467 234.04ZM811.467 123.72L818.57 127.4L818.579 127.383L818.588 127.365L811.467 123.72ZM846.187 87.6L850.072 94.5933L850.105 94.575L850.137 94.5565L846.187 87.6ZM954.267 87.6L950.279 94.5352L950.33 94.5646L950.381 94.5933L954.267 87.6ZM988.987 123.72L981.865 127.365L981.874 127.383L981.883 127.4L988.987 123.72ZM988.987 234.04L981.883 230.36L981.883 230.36L988.987 234.04ZM954.267 269.88L950.381 262.887L950.363 262.897L950.344 262.907L954.267 269.88ZM924.027 231.52L919.463 224.949L919.42 224.979L919.377 225.01L924.027 231.52ZM939.427 211.36L946.843 214.358L946.854 214.331L946.865 214.304L939.427 211.36ZM939.427 146.4L946.865 143.456L946.865 143.456L939.427 146.4ZM924.027 125.96L919.256 132.382L919.358 132.458L919.463 132.531L924.027 125.96ZM876.147 125.96L880.796 132.47L880.814 132.458L880.83 132.445L876.147 125.96ZM861.027 146.4L868.465 149.344L868.465 149.344L861.027 146.4ZM861.027 211.36L853.588 214.304L853.599 214.331L853.61 214.358L861.027 211.36ZM876.147 231.52L871.497 238.03L871.54 238.061L871.583 238.091L876.147 231.52ZM900.227 282.48V274.48C880.397 274.48 863.779 270.502 850.072 262.887L846.187 269.88L842.301 276.873C858.835 286.058 878.243 290.48 900.227 290.48V282.48ZM846.187 269.88L850.072 262.887C836.34 255.258 825.88 244.47 818.57 230.36L811.467 234.04L804.363 237.72C813.107 254.597 825.793 267.702 842.301 276.873L846.187 269.88ZM811.467 234.04L818.57 230.36C811.248 216.227 807.427 199.157 807.427 178.88H799.427H791.427C791.427 201.163 795.632 220.866 804.363 237.72L811.467 234.04ZM799.427 178.88H807.427C807.427 158.603 811.248 141.533 818.57 127.4L811.467 123.72L804.363 120.04C795.632 136.894 791.427 156.597 791.427 178.88H799.427ZM811.467 123.72L818.588 127.365C825.906 113.07 836.365 102.208 850.072 94.5933L846.187 87.6L842.301 80.6067C825.768 89.7921 813.081 103.01 804.345 120.075L811.467 123.72ZM846.187 87.6L850.137 94.5565C863.831 86.7799 880.425 82.72 900.227 82.72V74.72V66.72C878.215 66.72 858.782 71.2468 842.236 80.6435L846.187 87.6ZM900.227 74.72V82.72C920.233 82.72 936.804 86.787 950.279 94.5352L954.267 87.6L958.254 80.6647C941.863 71.2397 922.407 66.72 900.227 66.72V74.72ZM954.267 87.6L950.381 94.5933C964.088 102.208 974.547 113.07 981.865 127.365L988.987 123.72L996.108 120.075C987.372 103.01 974.685 89.7921 958.152 80.6067L954.267 87.6ZM988.987 123.72L981.883 127.4C989.205 141.533 993.027 158.603 993.027 178.88H1001.03H1009.03C1009.03 156.597 1004.82 136.894 996.09 120.04L988.987 123.72ZM1001.03 178.88H993.027C993.027 199.157 989.205 216.227 981.883 230.36L988.987 234.04L996.09 237.72C1004.82 220.866 1009.03 201.163 1009.03 178.88H1001.03ZM988.987 234.04L981.883 230.36C974.573 244.47 964.113 255.258 950.381 262.887L954.267 269.88L958.152 276.873C974.66 267.702 987.346 254.597 996.09 237.72L988.987 234.04ZM954.267 269.88L950.344 262.907C936.856 270.495 920.261 274.48 900.227 274.48V282.48V290.48C922.379 290.48 941.811 286.065 958.189 276.853L954.267 269.88ZM900.227 238.52V246.52C910.948 246.52 920.575 243.817 928.676 238.03L924.027 231.52L919.377 225.01C914.411 228.557 908.172 230.52 900.227 230.52V238.52ZM924.027 231.52L928.59 238.091C936.779 232.404 942.807 224.343 946.843 214.358L939.427 211.36L932.01 208.362C928.953 215.923 924.714 221.303 919.463 224.949L924.027 231.52ZM939.427 211.36L946.865 214.304C950.88 204.162 952.747 192.279 952.747 178.88H944.747H936.747C936.747 190.868 935.067 200.638 931.988 208.416L939.427 211.36ZM944.747 178.88H952.747C952.747 165.481 950.88 153.598 946.865 143.456L939.427 146.4L931.988 149.344C935.067 157.122 936.747 166.892 936.747 178.88H944.747ZM939.427 146.4L946.865 143.456C942.843 133.296 936.821 125.105 928.59 119.389L924.027 125.96L919.463 132.531C924.672 136.148 928.916 141.584 931.988 149.344L939.427 146.4ZM924.027 125.96L928.797 119.538C920.687 113.514 911.016 110.68 900.227 110.68V118.68V126.68C908.104 126.68 914.299 128.7 919.256 132.382L924.027 125.96ZM900.227 118.68V110.68C889.433 110.68 879.715 113.515 871.463 119.475L876.147 125.96L880.83 132.445C886.018 128.699 892.354 126.68 900.227 126.68V118.68ZM876.147 125.96L871.497 119.45C863.478 125.178 857.587 133.354 853.588 143.456L861.027 146.4L868.465 149.344C871.56 141.526 875.748 136.076 880.796 132.47L876.147 125.96ZM861.027 146.4L853.588 143.456C849.573 153.598 847.707 165.481 847.707 178.88H855.707H863.707C863.707 166.892 865.387 157.122 868.465 149.344L861.027 146.4ZM855.707 178.88H847.707C847.707 192.279 849.573 204.162 853.588 214.304L861.027 211.36L868.465 208.416C865.387 200.638 863.707 190.868 863.707 178.88H855.707ZM861.027 211.36L853.61 214.358C857.623 224.286 863.519 232.332 871.497 238.03L876.147 231.52L880.796 225.01C875.707 221.375 871.524 215.981 868.443 208.362L861.027 211.36ZM876.147 231.52L871.583 238.091C879.826 243.815 889.5 246.52 900.227 246.52V238.52V230.52C892.287 230.52 885.907 228.558 880.71 224.949L876.147 231.52Z" fill="white"/>
<mask id="path-3-outside-1_20_2" maskUnits="userSpaceOnUse" x="16" y="34" width="962" height="225" fill="black">
<rect fill="white" x="16" y="34" width="962" height="225"/>
<path d="M113.76 250.48C95.4667 250.48 79.88 247.587 67 241.8C54.12 236.013 44.1333 227.8 37.04 217.16C29.9467 206.52 25.9333 193.92 25 179.36L79.6 176.84C80.5333 183.373 82.4 188.973 85.2 193.64C88 198.12 91.7333 201.573 96.4 204C101.253 206.24 107.227 207.36 114.32 207.36C119.92 207.36 124.68 206.8 128.6 205.68C132.52 204.373 135.507 202.413 137.56 199.8C139.613 197.187 140.64 193.92 140.64 190C140.64 186.453 139.707 183.373 137.84 180.76C136.16 177.96 132.707 175.533 127.48 173.48C122.44 171.24 114.88 169.093 104.8 167.04C86.6933 163.307 72.04 159.013 60.84 154.16C49.64 149.12 41.4267 142.68 36.2 134.84C31.16 127 28.64 117.013 28.64 104.88C28.64 92.56 31.8133 81.7333 38.16 72.4C44.5067 63.0667 53.6533 55.7867 65.6 50.56C77.5467 45.3333 91.92 42.72 108.72 42.72C126.453 42.72 141.293 45.7067 153.24 51.68C165.187 57.6533 174.427 65.8667 180.96 76.32C187.68 86.7733 191.693 98.9067 193 112.72L138.96 114.96C138.587 108.8 137.093 103.573 134.48 99.28C131.867 94.9867 128.32 91.72 123.84 89.48C119.547 87.0533 114.32 85.84 108.16 85.84C100.32 85.84 94.2533 87.4267 89.96 90.6C85.6667 93.7733 83.52 97.9733 83.52 103.2C83.52 107.307 84.5467 110.76 86.6 113.56C88.84 116.36 92.3867 118.693 97.24 120.56C102.28 122.427 109.093 124.107 117.68 125.6C137.28 128.96 152.773 133.533 164.16 139.32C175.547 145.107 183.573 152.013 188.24 160.04C193.093 168.067 195.52 177.307 195.52 187.76C195.52 200.64 192.253 211.84 185.72 221.36C179.373 230.693 170.04 237.88 157.72 242.92C145.587 247.96 130.933 250.48 113.76 250.48ZM236.665 246V91.16H178.705V47.2H349.785V91.16H291.825V246H236.665ZM430.934 250.48C410.028 250.48 392.014 246.28 376.894 237.88C361.774 229.48 350.201 217.533 342.174 202.04C334.148 186.547 330.134 168.16 330.134 146.88C330.134 125.6 334.148 107.213 342.174 91.72C350.201 76.04 361.774 64 376.894 55.6C392.014 47.0133 410.028 42.72 430.934 42.72C452.028 42.72 470.041 47.0133 484.974 55.6C500.094 64 511.668 76.04 519.694 91.72C527.721 107.213 531.734 125.6 531.734 146.88C531.734 168.16 527.721 186.547 519.694 202.04C511.668 217.533 500.094 229.48 484.974 237.88C470.041 246.28 452.028 250.48 430.934 250.48ZM430.934 206.52C440.268 206.52 448.201 204.187 454.734 199.52C461.454 194.853 466.588 188.133 470.134 179.36C473.681 170.4 475.454 159.573 475.454 146.88C475.454 134.187 473.681 123.36 470.134 114.4C466.588 105.44 461.454 98.6267 454.734 93.96C448.201 89.1067 440.268 86.68 430.934 86.68C421.601 86.68 413.574 89.1067 406.854 93.96C400.321 98.6267 395.281 105.44 391.734 114.4C388.188 123.36 386.414 134.187 386.414 146.88C386.414 159.573 388.188 170.4 391.734 179.36C395.281 188.133 400.321 194.853 406.854 199.52C413.574 204.187 421.601 206.52 430.934 206.52ZM532.918 246V47.2H605.998C639.411 47.2 665.078 55.88 682.998 73.24C700.918 90.4133 709.878 114.96 709.878 146.88C709.878 178.613 701.011 203.067 683.278 220.24C665.731 237.413 640.531 246 607.678 246H532.918ZM587.798 202.04H605.998C622.611 202.04 634.651 197.56 642.118 188.6C649.771 179.64 653.598 165.64 653.598 146.6C653.598 127.56 649.771 113.56 642.118 104.6C634.651 95.64 622.611 91.16 605.998 91.16H587.798V202.04ZM711.221 246V47.2H766.101V246H711.221ZM868.227 250.48C847.32 250.48 829.307 246.28 814.187 237.88C799.067 229.48 787.493 217.533 779.467 202.04C771.44 186.547 767.427 168.16 767.427 146.88C767.427 125.6 771.44 107.213 779.467 91.72C787.493 76.04 799.067 64 814.187 55.6C829.307 47.0133 847.32 42.72 868.227 42.72C889.32 42.72 907.333 47.0133 922.267 55.6C937.387 64 948.96 76.04 956.987 91.72C965.013 107.213 969.027 125.6 969.027 146.88C969.027 168.16 965.013 186.547 956.987 202.04C948.96 217.533 937.387 229.48 922.267 237.88C907.333 246.28 889.32 250.48 868.227 250.48ZM868.227 206.52C877.56 206.52 885.493 204.187 892.027 199.52C898.747 194.853 903.88 188.133 907.427 179.36C910.973 170.4 912.747 159.573 912.747 146.88C912.747 134.187 910.973 123.36 907.427 114.4C903.88 105.44 898.747 98.6267 892.027 93.96C885.493 89.1067 877.56 86.68 868.227 86.68C858.893 86.68 850.867 89.1067 844.147 93.96C837.613 98.6267 832.573 105.44 829.027 114.4C825.48 123.36 823.707 134.187 823.707 146.88C823.707 159.573 825.48 170.4 829.027 179.36C832.573 188.133 837.613 194.853 844.147 199.52C850.867 204.187 858.893 206.52 868.227 206.52Z"/>
</mask>
<path d="M113.76 250.48C95.4667 250.48 79.88 247.587 67 241.8C54.12 236.013 44.1333 227.8 37.04 217.16C29.9467 206.52 25.9333 193.92 25 179.36L79.6 176.84C80.5333 183.373 82.4 188.973 85.2 193.64C88 198.12 91.7333 201.573 96.4 204C101.253 206.24 107.227 207.36 114.32 207.36C119.92 207.36 124.68 206.8 128.6 205.68C132.52 204.373 135.507 202.413 137.56 199.8C139.613 197.187 140.64 193.92 140.64 190C140.64 186.453 139.707 183.373 137.84 180.76C136.16 177.96 132.707 175.533 127.48 173.48C122.44 171.24 114.88 169.093 104.8 167.04C86.6933 163.307 72.04 159.013 60.84 154.16C49.64 149.12 41.4267 142.68 36.2 134.84C31.16 127 28.64 117.013 28.64 104.88C28.64 92.56 31.8133 81.7333 38.16 72.4C44.5067 63.0667 53.6533 55.7867 65.6 50.56C77.5467 45.3333 91.92 42.72 108.72 42.72C126.453 42.72 141.293 45.7067 153.24 51.68C165.187 57.6533 174.427 65.8667 180.96 76.32C187.68 86.7733 191.693 98.9067 193 112.72L138.96 114.96C138.587 108.8 137.093 103.573 134.48 99.28C131.867 94.9867 128.32 91.72 123.84 89.48C119.547 87.0533 114.32 85.84 108.16 85.84C100.32 85.84 94.2533 87.4267 89.96 90.6C85.6667 93.7733 83.52 97.9733 83.52 103.2C83.52 107.307 84.5467 110.76 86.6 113.56C88.84 116.36 92.3867 118.693 97.24 120.56C102.28 122.427 109.093 124.107 117.68 125.6C137.28 128.96 152.773 133.533 164.16 139.32C175.547 145.107 183.573 152.013 188.24 160.04C193.093 168.067 195.52 177.307 195.52 187.76C195.52 200.64 192.253 211.84 185.72 221.36C179.373 230.693 170.04 237.88 157.72 242.92C145.587 247.96 130.933 250.48 113.76 250.48ZM236.665 246V91.16H178.705V47.2H349.785V91.16H291.825V246H236.665ZM430.934 250.48C410.028 250.48 392.014 246.28 376.894 237.88C361.774 229.48 350.201 217.533 342.174 202.04C334.148 186.547 330.134 168.16 330.134 146.88C330.134 125.6 334.148 107.213 342.174 91.72C350.201 76.04 361.774 64 376.894 55.6C392.014 47.0133 410.028 42.72 430.934 42.72C452.028 42.72 470.041 47.0133 484.974 55.6C500.094 64 511.668 76.04 519.694 91.72C527.721 107.213 531.734 125.6 531.734 146.88C531.734 168.16 527.721 186.547 519.694 202.04C511.668 217.533 500.094 229.48 484.974 237.88C470.041 246.28 452.028 250.48 430.934 250.48ZM430.934 206.52C440.268 206.52 448.201 204.187 454.734 199.52C461.454 194.853 466.588 188.133 470.134 179.36C473.681 170.4 475.454 159.573 475.454 146.88C475.454 134.187 473.681 123.36 470.134 114.4C466.588 105.44 461.454 98.6267 454.734 93.96C448.201 89.1067 440.268 86.68 430.934 86.68C421.601 86.68 413.574 89.1067 406.854 93.96C400.321 98.6267 395.281 105.44 391.734 114.4C388.188 123.36 386.414 134.187 386.414 146.88C386.414 159.573 388.188 170.4 391.734 179.36C395.281 188.133 400.321 194.853 406.854 199.52C413.574 204.187 421.601 206.52 430.934 206.52ZM532.918 246V47.2H605.998C639.411 47.2 665.078 55.88 682.998 73.24C700.918 90.4133 709.878 114.96 709.878 146.88C709.878 178.613 701.011 203.067 683.278 220.24C665.731 237.413 640.531 246 607.678 246H532.918ZM587.798 202.04H605.998C622.611 202.04 634.651 197.56 642.118 188.6C649.771 179.64 653.598 165.64 653.598 146.6C653.598 127.56 649.771 113.56 642.118 104.6C634.651 95.64 622.611 91.16 605.998 91.16H587.798V202.04ZM711.221 246V47.2H766.101V246H711.221ZM868.227 250.48C847.32 250.48 829.307 246.28 814.187 237.88C799.067 229.48 787.493 217.533 779.467 202.04C771.44 186.547 767.427 168.16 767.427 146.88C767.427 125.6 771.44 107.213 779.467 91.72C787.493 76.04 799.067 64 814.187 55.6C829.307 47.0133 847.32 42.72 868.227 42.72C889.32 42.72 907.333 47.0133 922.267 55.6C937.387 64 948.96 76.04 956.987 91.72C965.013 107.213 969.027 125.6 969.027 146.88C969.027 168.16 965.013 186.547 956.987 202.04C948.96 217.533 937.387 229.48 922.267 237.88C907.333 246.28 889.32 250.48 868.227 250.48ZM868.227 206.52C877.56 206.52 885.493 204.187 892.027 199.52C898.747 194.853 903.88 188.133 907.427 179.36C910.973 170.4 912.747 159.573 912.747 146.88C912.747 134.187 910.973 123.36 907.427 114.4C903.88 105.44 898.747 98.6267 892.027 93.96C885.493 89.1067 877.56 86.68 868.227 86.68C858.893 86.68 850.867 89.1067 844.147 93.96C837.613 98.6267 832.573 105.44 829.027 114.4C825.48 123.36 823.707 134.187 823.707 146.88C823.707 159.573 825.48 170.4 829.027 179.36C832.573 188.133 837.613 194.853 844.147 199.52C850.867 204.187 858.893 206.52 868.227 206.52Z" fill="black"/>
<path d="M67 241.8L63.7215 249.097L63.7215 249.097L67 241.8ZM37.04 217.16L30.3836 221.598L30.3836 221.598L37.04 217.16ZM25 179.36L24.6312 171.369L16.4954 171.744L17.0164 179.872L25 179.36ZM79.6 176.84L87.5196 175.709L86.4917 168.513L79.2312 168.849L79.6 176.84ZM85.2 193.64L78.3401 197.756L78.3775 197.818L78.416 197.88L85.2 193.64ZM96.4 204L92.7092 211.098L92.8764 211.185L93.0475 211.264L96.4 204ZM128.6 205.68L130.798 213.372L130.965 213.324L131.13 213.269L128.6 205.68ZM137.84 180.76L130.98 184.876L131.144 185.15L131.33 185.41L137.84 180.76ZM127.48 173.48L124.231 180.79L124.391 180.862L124.555 180.926L127.48 173.48ZM104.8 167.04L103.184 174.875L103.194 174.877L103.203 174.879L104.8 167.04ZM60.84 154.16L57.5571 161.455L57.608 161.478L57.6591 161.5L60.84 154.16ZM36.2 134.84L29.4706 139.166L29.5066 139.222L29.5436 139.278L36.2 134.84ZM38.16 72.4L44.7754 76.8985L44.7754 76.8985L38.16 72.4ZM65.6 50.56L62.3935 43.2307L65.6 50.56ZM153.24 51.68L149.662 58.8354L149.662 58.8354L153.24 51.68ZM180.96 76.32L174.176 80.56L174.203 80.6032L174.231 80.6461L180.96 76.32ZM193 112.72L193.331 120.713L201.759 120.364L200.964 111.967L193 112.72ZM138.96 114.96L130.975 115.444L131.449 123.278L139.291 122.953L138.96 114.96ZM123.84 89.48L119.904 96.4445L120.081 96.5445L120.262 96.6354L123.84 89.48ZM89.96 90.6L94.7151 97.0334L94.7151 97.0334L89.96 90.6ZM86.6 113.56L80.1488 118.291L80.2481 118.426L80.3531 118.558L86.6 113.56ZM97.24 120.56L94.3682 128.027L94.4147 128.045L94.4615 128.062L97.24 120.56ZM117.68 125.6L116.309 133.482L116.319 133.483L116.328 133.485L117.68 125.6ZM164.16 139.32L160.536 146.452L160.536 146.452L164.16 139.32ZM188.24 160.04L181.324 164.061L181.359 164.12L181.394 164.179L188.24 160.04ZM185.72 221.36L179.124 216.833L179.114 216.847L179.105 216.862L185.72 221.36ZM157.72 242.92L154.691 235.516L154.671 235.524L154.651 235.532L157.72 242.92ZM113.76 250.48V242.48C96.2766 242.48 81.8708 239.711 70.2785 234.503L67 241.8L63.7215 249.097C77.8892 255.463 94.6567 258.48 113.76 258.48V250.48ZM67 241.8L70.2785 234.503C58.6231 229.266 49.8695 221.982 43.6964 212.722L37.04 217.16L30.3836 221.598C38.3971 233.618 49.6169 242.76 63.7215 249.097L67 241.8ZM37.04 217.16L43.6964 212.722C37.4872 203.409 33.8399 192.207 32.9836 178.848L25 179.36L17.0164 179.872C18.0267 195.633 22.4062 209.631 30.3836 221.598L37.04 217.16ZM25 179.36L25.3688 187.351L79.9688 184.831L79.6 176.84L79.2312 168.849L24.6312 171.369L25 179.36ZM79.6 176.84L71.6804 177.971C72.7332 185.341 74.888 192.003 78.3401 197.756L85.2 193.64L92.0599 189.524C89.912 185.944 88.3334 181.406 87.5196 175.709L79.6 176.84ZM85.2 193.64L78.416 197.88C81.9698 203.566 86.7689 208.009 92.7092 211.098L96.4 204L100.091 196.902C96.6978 195.138 94.0302 192.674 91.984 189.4L85.2 193.64ZM96.4 204L93.0475 211.264C99.2364 214.12 106.43 215.36 114.32 215.36V207.36V199.36C108.024 199.36 103.27 198.36 99.7525 196.736L96.4 204ZM114.32 207.36V215.36C120.407 215.36 125.953 214.756 130.798 213.372L128.6 205.68L126.402 197.988C123.407 198.844 119.433 199.36 114.32 199.36V207.36ZM128.6 205.68L131.13 213.269C136.173 211.588 140.618 208.857 143.851 204.743L137.56 199.8L131.269 194.857C130.395 195.97 128.867 197.158 126.07 198.091L128.6 205.68ZM137.56 199.8L143.851 204.743C147.202 200.477 148.64 195.378 148.64 190H140.64H132.64C132.64 192.462 132.025 193.896 131.269 194.857L137.56 199.8ZM140.64 190H148.64C148.64 184.968 147.287 180.221 144.35 176.11L137.84 180.76L131.33 185.41C132.127 186.525 132.64 187.938 132.64 190H140.64ZM137.84 180.76L144.7 176.644C141.66 171.578 136.21 168.314 130.405 166.034L127.48 173.48L124.555 180.926C129.203 182.752 130.66 184.342 130.98 184.876L137.84 180.76ZM127.48 173.48L130.729 166.17C124.885 163.572 116.647 161.289 106.397 159.201L104.8 167.04L103.203 174.879C113.113 176.898 119.995 178.908 124.231 180.79L127.48 173.48ZM104.8 167.04L106.416 159.205C88.6019 155.532 74.531 151.374 64.0209 146.82L60.84 154.16L57.6591 161.5C69.549 166.653 84.7848 171.081 103.184 174.875L104.8 167.04ZM60.84 154.16L64.1229 146.865C53.8852 142.258 47.0317 136.665 42.8564 130.402L36.2 134.84L29.5436 139.278C35.8217 148.695 45.3948 155.982 57.5571 161.455L60.84 154.16ZM36.2 134.84L42.9294 130.514C38.9351 124.301 36.64 115.935 36.64 104.88H28.64H20.64C20.64 118.091 23.3849 129.699 29.4706 139.166L36.2 134.84ZM28.64 104.88H36.64C36.64 94.0108 39.4136 84.7835 44.7754 76.8985L38.16 72.4L31.5446 67.9015C24.2131 78.6832 20.64 91.1092 20.64 104.88H28.64ZM38.16 72.4L44.7754 76.8985C50.15 68.9946 58.0212 62.6078 68.8066 57.8893L65.6 50.56L62.3935 43.2307C49.2854 48.9655 38.8633 57.1387 31.5446 67.9015L38.16 72.4ZM65.6 50.56L68.8066 57.8893C79.4956 53.2128 92.7185 50.72 108.72 50.72V42.72V34.72C91.1215 34.72 75.5977 37.4539 62.3935 43.2307L65.6 50.56ZM108.72 42.72V50.72C125.601 50.72 139.129 53.5688 149.662 58.8354L153.24 51.68L156.818 44.5246C143.458 37.8445 127.306 34.72 108.72 34.72V42.72ZM153.24 51.68L149.662 58.8354C160.406 64.2074 168.488 71.4588 174.176 80.56L180.96 76.32L187.744 72.08C180.366 60.2745 169.967 51.0992 156.818 44.5246L153.24 51.68ZM180.96 76.32L174.231 80.6461C180.182 89.9041 183.835 100.782 185.036 113.473L193 112.72L200.964 111.967C199.552 97.0311 195.178 83.6426 187.689 71.9939L180.96 76.32ZM193 112.72L192.669 104.727L138.629 106.967L138.96 114.96L139.291 122.953L193.331 120.713L193 112.72ZM138.96 114.96L146.945 114.476C146.511 107.308 144.742 100.753 141.314 95.1204L134.48 99.28L127.646 103.44C129.445 106.394 130.662 110.292 130.975 115.444L138.96 114.96ZM134.48 99.28L141.314 95.1204C137.921 89.547 133.248 85.2397 127.418 82.3246L123.84 89.48L120.262 96.6354C123.392 98.2003 125.812 100.426 127.646 103.44L134.48 99.28ZM123.84 89.48L127.776 82.5155C122.018 79.2608 115.361 77.84 108.16 77.84V85.84V93.84C113.279 93.84 117.075 94.8459 119.904 96.4445L123.84 89.48ZM108.16 85.84V77.84C99.3755 77.84 91.385 79.5987 85.2049 84.1666L89.96 90.6L94.7151 97.0334C97.1217 95.2546 101.265 93.84 108.16 93.84V85.84ZM89.96 90.6L85.2049 84.1666C78.9224 88.8101 75.52 95.372 75.52 103.2H83.52H91.52C91.52 100.575 92.4109 98.7365 94.7151 97.0334L89.96 90.6ZM83.52 103.2H75.52C75.52 108.688 76.915 113.881 80.1488 118.291L86.6 113.56L93.0512 108.829C92.1784 107.639 91.52 105.925 91.52 103.2H83.52ZM86.6 113.56L80.3531 118.558C83.7908 122.855 88.7503 125.866 94.3682 128.027L97.24 120.56L100.112 113.093C96.023 111.521 93.8892 109.865 92.847 108.562L86.6 113.56ZM97.24 120.56L94.4615 128.062C100.15 130.169 107.499 131.949 116.309 133.482L117.68 125.6L119.051 117.718C110.688 116.264 104.41 114.684 100.019 113.058L97.24 120.56ZM117.68 125.6L116.328 133.485C135.526 136.776 150.147 141.172 160.536 146.452L164.16 139.32L167.784 132.188C155.4 125.894 139.034 121.144 119.032 117.715L117.68 125.6ZM164.16 139.32L160.536 146.452C171.047 151.794 177.672 157.78 181.324 164.061L188.24 160.04L195.156 156.019C189.475 146.247 180.046 138.42 167.784 132.188L164.16 139.32ZM188.24 160.04L181.394 164.179C185.408 170.818 187.52 178.594 187.52 187.76H195.52H203.52C203.52 176.019 200.778 165.315 195.086 155.901L188.24 160.04ZM195.52 187.76H187.52C187.52 199.218 184.639 208.797 179.124 216.833L185.72 221.36L192.316 225.887C199.868 214.883 203.52 202.062 203.52 187.76H195.52ZM185.72 221.36L179.105 216.862C173.791 224.676 165.822 230.962 154.691 235.516L157.72 242.92L160.749 250.324C174.258 244.798 184.956 236.711 192.335 225.858L185.72 221.36ZM157.72 242.92L154.651 235.532C143.739 240.065 130.188 242.48 113.76 242.48V250.48V258.48C131.679 258.48 147.434 255.855 160.789 250.308L157.72 242.92ZM236.665 246H228.665V254H236.665V246ZM236.665 91.16H244.665V83.16H236.665V91.16ZM178.705 91.16H170.705V99.16H178.705V91.16ZM178.705 47.2V39.2H170.705V47.2H178.705ZM349.785 47.2H357.785V39.2H349.785V47.2ZM349.785 91.16V99.16H357.785V91.16H349.785ZM291.825 91.16V83.16H283.825V91.16H291.825ZM291.825 246V254H299.825V246H291.825ZM236.665 246H244.665V91.16H236.665H228.665V246H236.665ZM236.665 91.16V83.16H178.705V91.16V99.16H236.665V91.16ZM178.705 91.16H186.705V47.2H178.705H170.705V91.16H178.705ZM178.705 47.2V55.2H349.785V47.2V39.2H178.705V47.2ZM349.785 47.2H341.785V91.16H349.785H357.785V47.2H349.785ZM349.785 91.16V83.16H291.825V91.16V99.16H349.785V91.16ZM291.825 91.16H283.825V246H291.825H299.825V91.16H291.825ZM291.825 246V238H236.665V246V254H291.825V246ZM376.894 237.88L380.78 230.887L380.78 230.887L376.894 237.88ZM342.174 202.04L349.278 198.36L349.278 198.36L342.174 202.04ZM342.174 91.72L349.278 95.4L349.287 95.3827L349.296 95.3654L342.174 91.72ZM376.894 55.6L380.78 62.5933L380.812 62.575L380.845 62.5565L376.894 55.6ZM484.974 55.6L480.987 62.5352L481.038 62.5646L481.089 62.5933L484.974 55.6ZM519.694 91.72L512.573 95.3654L512.582 95.3827L512.591 95.4L519.694 91.72ZM519.694 202.04L512.591 198.36L512.591 198.36L519.694 202.04ZM484.974 237.88L481.089 230.887L481.071 230.897L481.052 230.907L484.974 237.88ZM454.734 199.52L450.171 192.949L450.128 192.979L450.084 193.01L454.734 199.52ZM470.134 179.36L477.551 182.358L477.562 182.331L477.573 182.304L470.134 179.36ZM470.134 114.4L477.573 111.456L477.573 111.456L470.134 114.4ZM454.734 93.96L449.964 100.382L450.066 100.458L450.171 100.531L454.734 93.96ZM406.854 93.96L411.504 100.47L411.521 100.458L411.538 100.445L406.854 93.96ZM391.734 114.4L399.173 117.344L399.173 117.344L391.734 114.4ZM391.734 179.36L384.296 182.304L384.307 182.331L384.318 182.358L391.734 179.36ZM406.854 199.52L402.204 206.03L402.248 206.061L402.291 206.091L406.854 199.52ZM430.934 250.48V242.48C411.105 242.48 394.486 238.502 380.78 230.887L376.894 237.88L373.009 244.873C389.542 254.058 408.951 258.48 430.934 258.48V250.48ZM376.894 237.88L380.78 230.887C367.048 223.258 356.588 212.47 349.278 198.36L342.174 202.04L335.071 205.72C343.815 222.597 356.501 235.702 373.009 244.873L376.894 237.88ZM342.174 202.04L349.278 198.36C341.956 184.227 338.134 167.157 338.134 146.88H330.134H322.134C322.134 169.163 326.34 188.866 335.071 205.72L342.174 202.04ZM330.134 146.88H338.134C338.134 126.603 341.956 109.533 349.278 95.4L342.174 91.72L335.071 88.04C326.34 104.894 322.134 124.597 322.134 146.88H330.134ZM342.174 91.72L349.296 95.3654C356.614 81.0698 367.073 70.2079 380.78 62.5933L376.894 55.6L373.009 48.6067C356.476 57.7921 343.789 71.0101 335.053 88.0746L342.174 91.72ZM376.894 55.6L380.845 62.5565C394.539 54.7799 411.133 50.72 430.934 50.72V42.72V34.72C408.923 34.72 389.49 39.2468 372.944 48.6435L376.894 55.6ZM430.934 42.72V50.72C450.941 50.72 467.511 54.787 480.987 62.5352L484.974 55.6L488.962 48.6647C472.571 39.2397 453.115 34.72 430.934 34.72V42.72ZM484.974 55.6L481.089 62.5933C494.796 70.2079 505.255 81.0698 512.573 95.3654L519.694 91.72L526.816 88.0746C518.08 71.0101 505.393 57.7921 488.86 48.6067L484.974 55.6ZM519.694 91.72L512.591 95.4C519.913 109.533 523.734 126.603 523.734 146.88H531.734H539.734C539.734 124.597 535.529 104.894 526.798 88.04L519.694 91.72ZM531.734 146.88H523.734C523.734 167.157 519.913 184.227 512.591 198.36L519.694 202.04L526.798 205.72C535.529 188.866 539.734 169.163 539.734 146.88H531.734ZM519.694 202.04L512.591 198.36C505.281 212.47 494.821 223.258 481.089 230.887L484.974 237.88L488.86 244.873C505.368 235.702 518.054 222.597 526.798 205.72L519.694 202.04ZM484.974 237.88L481.052 230.907C467.564 238.495 450.968 242.48 430.934 242.48V250.48V258.48C453.087 258.48 472.519 254.065 488.896 244.853L484.974 237.88ZM430.934 206.52V214.52C441.655 214.52 451.283 211.817 459.384 206.03L454.734 199.52L450.084 193.01C445.119 196.557 438.88 198.52 430.934 198.52V206.52ZM454.734 199.52L459.298 206.091C467.487 200.404 473.515 192.343 477.551 182.358L470.134 179.36L462.718 176.362C459.661 183.923 455.422 189.303 450.171 192.949L454.734 199.52ZM470.134 179.36L477.573 182.304C481.588 172.162 483.454 160.279 483.454 146.88H475.454H467.454C467.454 158.868 465.774 168.638 462.696 176.416L470.134 179.36ZM475.454 146.88H483.454C483.454 133.481 481.588 121.598 477.573 111.456L470.134 114.4L462.696 117.344C465.774 125.122 467.454 134.892 467.454 146.88H475.454ZM470.134 114.4L477.573 111.456C473.551 101.296 467.529 93.1053 459.298 87.389L454.734 93.96L450.171 100.531C455.38 104.148 459.624 109.584 462.696 117.344L470.134 114.4ZM454.734 93.96L459.505 87.538C451.395 81.5137 441.723 78.68 430.934 78.68V86.68V94.68C438.812 94.68 445.007 96.6996 449.964 100.382L454.734 93.96ZM430.934 86.68V78.68C420.14 78.68 410.423 81.5146 402.17 87.4746L406.854 93.96L411.538 100.445C416.726 96.6987 423.062 94.68 430.934 94.68V86.68ZM406.854 93.96L402.204 87.4501C394.186 93.1776 388.295 101.354 384.296 111.456L391.734 114.4L399.173 117.344C402.267 109.526 406.456 104.076 411.504 100.47L406.854 93.96ZM391.734 114.4L384.296 111.456C380.281 121.598 378.414 133.481 378.414 146.88H386.414H394.414C394.414 134.892 396.094 125.122 399.173 117.344L391.734 114.4ZM386.414 146.88H378.414C378.414 160.279 380.281 172.162 384.296 182.304L391.734 179.36L399.173 176.416C396.094 168.638 394.414 158.868 394.414 146.88H386.414ZM391.734 179.36L384.318 182.358C388.331 192.286 394.227 200.332 402.204 206.03L406.854 199.52L411.504 193.01C406.415 189.375 402.231 183.981 399.151 176.362L391.734 179.36ZM406.854 199.52L402.291 206.091C410.534 211.815 420.208 214.52 430.934 214.52V206.52V198.52C422.995 198.52 416.615 196.558 411.418 192.949L406.854 199.52ZM532.918 246H524.918V254H532.918V246ZM532.918 47.2V39.2H524.918V47.2H532.918ZM682.998 73.24L677.431 78.9859L677.447 79.0009L677.463 79.0159L682.998 73.24ZM683.278 220.24L677.712 214.493L677.697 214.508L677.682 214.523L683.278 220.24ZM587.798 202.04H579.798V210.04H587.798V202.04ZM642.118 188.6L636.035 183.404L636.003 183.441L635.972 183.479L642.118 188.6ZM642.118 104.6L635.972 109.721L636.003 109.759L636.035 109.796L642.118 104.6ZM587.798 91.16V83.16H579.798V91.16H587.798ZM532.918 246H540.918V47.2H532.918H524.918V246H532.918ZM532.918 47.2V55.2H605.998V47.2V39.2H532.918V47.2ZM605.998 47.2V55.2C638.057 55.2 661.453 63.507 677.431 78.9859L682.998 73.24L688.564 67.4941C668.702 48.253 640.765 39.2 605.998 39.2V47.2ZM682.998 73.24L677.463 79.0159C693.39 94.2792 701.878 116.484 701.878 146.88H709.878H717.878C717.878 113.436 708.446 86.5474 688.533 67.4641L682.998 73.24ZM709.878 146.88H701.878C701.878 177.097 693.477 199.226 677.712 214.493L683.278 220.24L688.843 225.987C708.545 206.907 717.878 180.129 717.878 146.88H709.878ZM683.278 220.24L677.682 214.523C662.08 229.793 639.167 238 607.678 238V246V254C641.896 254 669.382 245.034 688.874 225.957L683.278 220.24ZM607.678 246V238H532.918V246V254H607.678V246ZM587.798 202.04V210.04H605.998V202.04V194.04H587.798V202.04ZM605.998 202.04V210.04C623.939 210.04 638.715 205.18 648.264 193.721L642.118 188.6L635.972 183.479C630.588 189.94 621.284 194.04 605.998 194.04V202.04ZM642.118 188.6L648.201 193.796C657.655 182.727 661.598 166.446 661.598 146.6H653.598H645.598C645.598 164.834 641.887 176.553 636.035 183.404L642.118 188.6ZM653.598 146.6H661.598C661.598 126.754 657.655 110.473 648.201 99.4041L642.118 104.6L636.035 109.796C641.887 116.647 645.598 128.366 645.598 146.6H653.598ZM642.118 104.6L648.264 99.4785C638.715 88.0198 623.939 83.16 605.998 83.16V91.16V99.16C621.284 99.16 630.588 103.26 635.972 109.721L642.118 104.6ZM605.998 91.16V83.16H587.798V91.16V99.16H605.998V91.16ZM587.798 91.16H579.798V202.04H587.798H595.798V91.16H587.798ZM711.221 246H703.221V254H711.221V246ZM711.221 47.2V39.2H703.221V47.2H711.221ZM766.101 47.2H774.101V39.2H766.101V47.2ZM766.101 246V254H774.101V246H766.101ZM711.221 246H719.221V47.2H711.221H703.221V246H711.221ZM711.221 47.2V55.2H766.101V47.2V39.2H711.221V47.2ZM766.101 47.2H758.101V246H766.101H774.101V47.2H766.101ZM766.101 246V238H711.221V246V254H766.101V246ZM814.187 237.88L818.072 230.887L818.072 230.887L814.187 237.88ZM779.467 202.04L786.57 198.36L786.57 198.36L779.467 202.04ZM779.467 91.72L786.57 95.4L786.579 95.3827L786.588 95.3654L779.467 91.72ZM814.187 55.6L818.072 62.5933L818.105 62.575L818.137 62.5565L814.187 55.6ZM922.267 55.6L918.279 62.5352L918.33 62.5646L918.381 62.5933L922.267 55.6ZM956.987 91.72L949.865 95.3654L949.874 95.3827L949.883 95.4L956.987 91.72ZM956.987 202.04L949.883 198.36L949.883 198.36L956.987 202.04ZM922.267 237.88L918.381 230.887L918.363 230.897L918.344 230.907L922.267 237.88ZM892.027 199.52L887.463 192.949L887.42 192.979L887.377 193.01L892.027 199.52ZM907.427 179.36L914.843 182.358L914.854 182.331L914.865 182.304L907.427 179.36ZM907.427 114.4L914.865 111.456L914.865 111.456L907.427 114.4ZM892.027 93.96L887.256 100.382L887.358 100.458L887.463 100.531L892.027 93.96ZM844.147 93.96L848.796 100.47L848.814 100.458L848.83 100.445L844.147 93.96ZM829.027 114.4L836.465 117.344L836.465 117.344L829.027 114.4ZM829.027 179.36L821.588 182.304L821.599 182.331L821.61 182.358L829.027 179.36ZM844.147 199.52L839.497 206.03L839.54 206.061L839.583 206.091L844.147 199.52ZM868.227 250.48V242.48C848.397 242.48 831.779 238.502 818.072 230.887L814.187 237.88L810.301 244.873C826.835 254.058 846.243 258.48 868.227 258.48V250.48ZM814.187 237.88L818.072 230.887C804.34 223.258 793.88 212.47 786.57 198.36L779.467 202.04L772.363 205.72C781.107 222.597 793.793 235.702 810.301 244.873L814.187 237.88ZM779.467 202.04L786.57 198.36C779.248 184.227 775.427 167.157 775.427 146.88H767.427H759.427C759.427 169.163 763.632 188.866 772.363 205.72L779.467 202.04ZM767.427 146.88H775.427C775.427 126.603 779.248 109.533 786.57 95.4L779.467 91.72L772.363 88.04C763.632 104.894 759.427 124.597 759.427 146.88H767.427ZM779.467 91.72L786.588 95.3654C793.906 81.0698 804.365 70.2079 818.072 62.5933L814.187 55.6L810.301 48.6067C793.768 57.7921 781.081 71.0101 772.345 88.0746L779.467 91.72ZM814.187 55.6L818.137 62.5565C831.831 54.7799 848.425 50.72 868.227 50.72V42.72V34.72C846.215 34.72 826.782 39.2468 810.236 48.6435L814.187 55.6ZM868.227 42.72V50.72C888.233 50.72 904.804 54.787 918.279 62.5352L922.267 55.6L926.254 48.6647C909.863 39.2397 890.407 34.72 868.227 34.72V42.72ZM922.267 55.6L918.381 62.5933C932.088 70.2079 942.547 81.0698 949.865 95.3654L956.987 91.72L964.108 88.0746C955.372 71.0101 942.685 57.7921 926.152 48.6067L922.267 55.6ZM956.987 91.72L949.883 95.4C957.205 109.533 961.027 126.603 961.027 146.88H969.027H977.027C977.027 124.597 972.821 104.894 964.09 88.04L956.987 91.72ZM969.027 146.88H961.027C961.027 167.157 957.205 184.227 949.883 198.36L956.987 202.04L964.09 205.72C972.821 188.866 977.027 169.163 977.027 146.88H969.027ZM956.987 202.04L949.883 198.36C942.573 212.47 932.113 223.258 918.381 230.887L922.267 237.88L926.152 244.873C942.66 235.702 955.346 222.597 964.09 205.72L956.987 202.04ZM922.267 237.88L918.344 230.907C904.856 238.495 888.261 242.48 868.227 242.48V250.48V258.48C890.379 258.48 909.811 254.065 926.189 244.853L922.267 237.88ZM868.227 206.52V214.52C878.948 214.52 888.575 211.817 896.676 206.03L892.027 199.52L887.377 193.01C882.411 196.557 876.172 198.52 868.227 198.52V206.52ZM892.027 199.52L896.59 206.091C904.779 200.404 910.807 192.343 914.843 182.358L907.427 179.36L900.01 176.362C896.953 183.923 892.714 189.303 887.463 192.949L892.027 199.52ZM907.427 179.36L914.865 182.304C918.88 172.162 920.747 160.279 920.747 146.88H912.747H904.747C904.747 158.868 903.067 168.638 899.988 176.416L907.427 179.36ZM912.747 146.88H920.747C920.747 133.481 918.88 121.598 914.865 111.456L907.427 114.4L899.988 117.344C903.067 125.122 904.747 134.892 904.747 146.88H912.747ZM907.427 114.4L914.865 111.456C910.843 101.296 904.821 93.1053 896.59 87.389L892.027 93.96L887.463 100.531C892.672 104.148 896.916 109.584 899.988 117.344L907.427 114.4ZM892.027 93.96L896.797 87.538C888.687 81.5137 879.016 78.68 868.227 78.68V86.68V94.68C876.104 94.68 882.299 96.6996 887.256 100.382L892.027 93.96ZM868.227 86.68V78.68C857.433 78.68 847.715 81.5146 839.463 87.4746L844.147 93.96L848.83 100.445C854.018 96.6987 860.354 94.68 868.227 94.68V86.68ZM844.147 93.96L839.497 87.4501C831.478 93.1776 825.587 101.354 821.588 111.456L829.027 114.4L836.465 117.344C839.56 109.526 843.748 104.076 848.796 100.47L844.147 93.96ZM829.027 114.4L821.588 111.456C817.573 121.598 815.707 133.481 815.707 146.88H823.707H831.707C831.707 134.892 833.387 125.122 836.465 117.344L829.027 114.4ZM823.707 146.88H815.707C815.707 160.279 817.573 172.162 821.588 182.304L829.027 179.36L836.465 176.416C833.387 168.638 831.707 158.868 831.707 146.88H823.707ZM829.027 179.36L821.61 182.358C825.623 192.286 831.519 200.332 839.497 206.03L844.147 199.52L848.796 193.01C843.707 189.375 839.524 183.981 836.443 176.362L829.027 179.36ZM844.147 199.52L839.583 206.091C847.826 211.815 857.5 214.52 868.227 214.52V206.52V198.52C860.287 198.52 853.907 196.558 848.71 192.949L844.147 199.52Z" fill="white" mask="url(#path-3-outside-1_20_2)"/>
</g>
<defs>
<clipPath id="clip0_20_2">
<rect width="1024" height="325" fill="white"/>
</clipPath>
</defs>
</svg>
