<svg width="1024" height="565" viewBox="0 0 1024 565" fill="none" xmlns="http://www.w3.org/2000/svg">
<path d="M95.9521 199.021C95.9522 185.931 97.8201 174.238 102.37 164.688C107.208 154.534 115.677 146.83 128.042 146.83C138.369 146.83 145.908 152.882 150.819 160.613C155.692 167.645 158.974 176.885 161.234 187.431C162.849 194.961 163.949 203.442 164.58 212.819L184.754 210.445C184.268 200.947 183.572 191.848 182.671 183.146H173.558V130.5C168.668 111.602 162.37 97.139 154.985 86.6543C147.055 75.3947 138.35 71 128.498 71C118.95 71.0001 110.497 74.9766 102.689 84.6758C94.4375 94.9276 87.5656 109.939 82.6396 130.509C77.7359 150.986 75.208 175.079 75.208 202.911C75.208 230.489 77.2319 252.625 81.0654 269.581C85.0175 286.389 91.0649 299.549 98.8438 309.521C106.901 319.411 117.635 328.42 131.311 336.435C140.186 341.569 147.624 347.349 152.969 353.993C158.509 360.267 162.161 367.652 163.938 375.913C165.719 383.103 166.523 391.175 166.523 399.979C166.523 409.7 165.636 418.425 163.577 425.867C161.556 433.172 158.276 439.959 152.956 444.995L152.623 445.311L152.268 445.599C146.698 450.118 140.063 452.17 133.064 452.17C123.024 452.17 114.808 447.396 108.913 439.67L108.708 439.4L108.518 439.12C103.518 431.738 100.048 422.096 97.6025 410.985L97.5918 410.936L97.5811 410.887C95.8359 402.627 94.5367 393.341 93.6494 383.068L72.5752 385.83C73.7218 414.375 76.8066 439.106 81.7393 460.116C87.3012 483.807 94.8956 500.978 103.928 512.501C112.518 523.461 121.932 528 132.607 528C142.73 528 151.445 523.998 159.296 514.737L159.324 514.703L159.354 514.668C167.723 504.947 174.695 490.304 179.607 469.788L179.61 469.775L179.613 469.764C184.66 448.883 187.268 423.941 187.268 394.792C187.268 371.215 185.337 350.689 181.595 333.115L181.585 333.069L181.576 333.022C178.044 315.771 172.057 301.344 163.836 289.48C155.829 277.926 144.852 268.633 130.551 261.671L130.521 261.656L130.49 261.641C122.594 257.741 115.773 253.087 110.442 247.481L110.364 247.399L110.288 247.316C104.887 241.418 101.172 234.278 98.9131 226.261L98.8779 226.135L98.8447 226.007C96.8364 218.23 95.9521 209.155 95.9521 199.021ZM982.24 300.148C982.24 251.371 978.998 209.559 972.619 174.598L972.616 174.585L972.614 174.572C966.199 138.987 957.128 112.83 945.98 95.2441L945.932 95.166L945.883 95.0869C935.021 77.3518 923.649 71 912.057 71C900.632 71 889.24 77.3329 878.195 95.1436L878.164 95.1943L878.133 95.2441C866.985 112.83 857.914 138.987 851.499 174.572L851.497 174.585L851.494 174.598C845.116 209.559 841.873 251.371 841.873 300.148C841.873 348.926 845.116 390.738 851.494 425.699C857.905 460.835 866.971 486.796 878.133 504.404C889.119 521.736 900.504 528 912.057 528C923.778 528 935.142 521.717 945.945 504.461L945.98 504.404C957.142 486.796 966.209 460.835 972.619 425.699C978.998 390.738 982.24 348.926 982.24 300.148ZM650.675 517.628H699.628C718.649 517.628 736.237 504.106 749.975 465.927L749.981 465.907L749.988 465.889C763.741 428.07 770.953 373.091 770.953 300.148C770.953 226.771 763.663 171.596 749.773 133.798L749.767 133.778L749.759 133.759C735.735 95.182 717.786 81.3721 698.258 81.3721H650.675V517.628ZM796.048 517.628H816.792V81.3721H796.048V517.628ZM197.558 127.519C198.092 129.69 198.606 131.898 199.101 134.141L199.627 136.506C201.209 143.747 202.598 151.295 203.8 159.146H244.813V517.628H265.786V159.146H309.186C310.385 153.336 311.67 147.727 313.042 142.323V81.3721H197.558V127.519ZM415.502 300.148C415.502 271.113 414.071 246.634 411.279 226.608C408.458 206.367 404.502 192.119 399.906 183.057L399.834 182.914L399.766 182.77C395.058 172.839 391.669 172.775 391.204 172.775C390.675 172.775 387.218 172.92 382.357 182.889L382.334 182.936C377.843 192.045 373.954 206.342 371.129 226.608C368.337 246.634 366.906 271.113 366.906 300.148C366.906 329.167 368.336 353.634 371.124 373.653L371.392 375.494C374.181 394.293 377.95 407.793 382.303 416.649C387.035 425.955 390.428 426.225 391.204 426.225C391.92 426.225 395.252 426.031 399.846 416.713L399.875 416.651L399.906 416.592C404.519 407.497 408.468 393.435 411.284 373.653C414.072 353.634 415.502 329.167 415.502 300.148ZM579.824 300.148C579.824 271.113 578.393 246.634 575.602 226.608C572.78 206.367 568.824 192.119 564.229 183.057L564.156 182.914L564.088 182.77C559.38 172.839 555.991 172.775 555.526 172.775C554.997 172.775 551.54 172.921 546.68 182.889L546.668 182.912L546.657 182.936C542.166 192.045 538.276 206.342 535.451 226.608C532.66 246.634 531.229 271.113 531.229 300.148C531.229 329.167 532.658 353.634 535.446 373.653C538.26 393.416 542.133 407.507 546.627 416.649C551.359 425.954 554.75 426.225 555.526 426.225C556.242 426.225 559.574 426.031 564.168 416.713L564.198 416.651L564.229 416.592C568.841 407.496 572.79 393.435 575.606 373.653C578.395 353.634 579.824 329.167 579.824 300.148ZM936.354 300.148C936.354 271.113 934.923 246.634 932.132 226.608C929.31 206.367 925.355 192.119 920.759 183.057L920.687 182.914L920.618 182.77C915.91 172.839 912.521 172.775 912.057 172.775C911.528 172.775 908.071 172.92 903.21 182.889L903.187 182.936C898.695 192.045 894.807 206.342 891.981 226.608C889.19 246.634 887.759 271.113 887.759 300.148C887.759 329.167 889.188 353.634 891.977 373.653C894.788 393.399 898.656 407.483 903.145 416.627C907.883 425.954 911.28 426.225 912.057 426.225C912.772 426.225 916.104 426.031 920.698 416.713L920.729 416.651L920.759 416.592C925.371 407.496 929.321 393.435 932.137 373.653C934.925 353.634 936.354 329.167 936.354 300.148ZM725.067 299.5C725.067 255.642 721.925 224.699 716.216 205.72L716.192 205.642C713.432 196.236 710.167 190.454 707.063 187.175C704.284 184.238 701.538 183.146 698.258 183.146H695.419V415.854H698.258C701.538 415.854 704.284 414.762 707.063 411.825C710.167 408.546 713.432 402.764 716.192 393.358L716.216 393.28C721.925 374.301 725.067 343.358 725.067 299.5ZM321.021 300.148C321.021 348.926 324.263 390.738 330.642 425.699C337.052 460.835 346.118 486.796 357.279 504.404C368.266 521.736 379.652 528 391.204 528C402.925 528 414.29 521.717 425.093 504.461L425.128 504.404C436.289 486.796 445.355 460.835 451.766 425.699C457.854 392.327 461.083 352.713 461.364 306.757C461.351 304.567 461.343 302.364 461.343 300.148C461.343 297.933 461.351 295.729 461.364 293.539C461.083 247.583 457.854 207.97 451.766 174.598L451.762 174.572C445.347 138.987 436.276 112.83 425.128 95.2441L425.079 95.166L425.03 95.0869C414.168 77.3519 402.797 71 391.204 71C379.78 71 368.387 77.3329 357.343 95.1436L357.312 95.1943L357.279 95.2441C349.437 107.616 342.627 124.229 337.042 145.382V183.146H329.17C323.767 216.314 321.021 255.285 321.021 300.148ZM439.502 300.148C439.502 329.888 438.042 355.54 435.05 377.002L435.047 377.02L435.045 377.036C432.087 397.811 427.683 414.822 421.37 427.324L421.371 427.325C415.312 439.615 405.708 450.225 391.204 450.225C376.762 450.225 367.079 439.692 360.869 427.446L360.838 427.386L360.809 427.325C354.662 414.858 350.327 397.852 347.363 377.036L347.361 377.02L347.358 377.002C344.367 355.54 342.906 329.888 342.906 300.148C342.906 270.409 344.367 244.757 347.358 223.295C350.313 202.1 354.635 184.865 360.785 172.37L361.367 171.202C367.489 159.184 376.973 148.775 391.204 148.775C405.925 148.775 415.462 159.896 421.41 172.402C427.718 184.931 432.104 202.161 435.05 223.295C438.042 244.757 439.502 270.409 439.502 300.148ZM485.388 300.148C485.388 302.364 485.378 304.567 485.365 306.757C485.646 352.713 488.876 392.327 494.965 425.699C501.375 460.835 510.441 486.796 521.603 504.404C532.589 521.736 543.974 528 555.526 528C567.248 528 578.612 521.717 589.415 504.461L589.433 504.433L589.451 504.404C600.613 486.796 609.679 460.835 616.089 425.699C622.467 390.738 625.71 348.926 625.71 300.148C625.71 251.371 622.467 209.559 616.089 174.598L616.086 174.585L616.084 174.572C609.669 138.987 600.599 112.83 589.451 95.2441L589.401 95.166L589.353 95.0869C578.491 77.3519 567.119 71 555.526 71C544.102 71.0001 532.71 77.333 521.665 95.1436L521.634 95.1943L521.603 95.2441C510.455 112.83 501.384 138.987 494.969 174.572L494.965 174.598C488.876 207.97 485.646 247.583 485.365 293.539C485.378 295.729 485.388 297.933 485.388 300.148ZM603.824 300.148C603.824 329.888 602.364 355.54 599.372 377.002L599.369 377.02L599.367 377.036C596.4 397.878 591.979 414.933 585.634 427.446L585.633 427.445C579.57 439.684 569.983 450.225 555.526 450.225C541.085 450.225 531.401 439.692 525.191 427.446L525.131 427.325C518.984 414.858 514.65 397.852 511.687 377.036L511.684 377.02L511.682 377.002C508.69 355.54 507.229 329.888 507.229 300.148C507.229 270.409 508.69 244.757 511.682 223.295C514.636 202.1 518.957 184.865 525.107 172.37L525.689 171.202C531.811 159.184 541.295 148.775 555.526 148.775C570.214 148.775 579.74 159.847 585.691 172.319C592.022 184.855 596.42 202.114 599.372 223.295C602.364 244.757 603.824 270.409 603.824 300.148ZM960.354 300.148C960.354 329.888 958.894 355.54 955.902 377.002L955.899 377.02L955.897 377.036C952.93 397.878 948.51 414.933 942.164 427.446L942.162 427.445C936.1 439.684 926.513 450.225 912.057 450.225C897.615 450.225 887.932 439.692 881.722 427.446L881.69 427.386L881.661 427.325C875.515 414.858 871.179 397.852 868.216 377.036L868.214 377.02L868.211 377.002C865.219 355.54 863.759 329.888 863.759 300.148C863.759 270.409 865.219 244.757 868.211 223.295C871.165 202.1 875.488 184.865 881.638 172.37L882.22 171.202C888.342 159.184 897.825 148.775 912.057 148.775C926.748 148.775 936.276 159.852 942.227 172.328C948.554 184.863 952.951 202.12 955.902 223.295C958.894 244.757 960.354 270.409 960.354 300.148ZM749.067 299.5C749.067 343.752 745.975 377.606 739.221 400.115L739.222 400.116C735.894 411.455 731.207 421.231 724.495 428.323C717.459 435.758 708.523 439.854 698.258 439.854H671.419V159.146H698.258C708.523 159.146 717.459 163.242 724.495 170.677C731.207 177.769 735.894 187.545 739.222 198.884C745.976 221.393 749.067 255.248 749.067 299.5ZM119.952 199.021C119.952 207.83 120.73 214.704 122.05 219.877C123.43 224.716 125.459 228.318 127.92 231.031C130.807 234.041 135.071 237.136 141.117 240.122C158.748 248.716 173.014 260.589 183.562 275.811C193.893 290.718 200.988 308.241 205.068 328.117C209.24 347.709 211.268 369.967 211.268 394.792C211.268 425.271 208.549 452.182 202.946 475.376L202.947 475.377C197.52 498.039 189.29 516.647 177.601 530.257L177.602 530.258C165.668 544.334 150.488 552 132.607 552C113.453 552 97.4509 543.142 85.0391 527.308C73.069 512.037 64.3786 491.177 58.374 465.602C52.3496 439.941 49.0171 409.901 48.2432 375.616L48 364.847L116.088 355.923L116.741 368.908C117.479 383.568 118.939 395.838 121.042 405.826L121.445 407.594C123.431 415.996 125.803 421.714 128.18 425.347C130.108 427.781 131.585 428.17 133.064 428.17C134.9 428.17 135.99 427.767 136.782 427.23C137.834 426.081 139.248 423.796 140.446 419.467C141.735 414.809 142.523 408.408 142.523 399.979C142.523 392.463 141.822 386.361 140.603 381.514L140.547 381.291L140.499 381.067C139.547 376.561 137.662 372.869 134.858 369.741L134.614 369.47L134.388 369.185C131.529 365.577 126.727 361.51 119.294 357.21L119.267 357.193L119.239 357.178C103.456 347.937 90.3355 337.106 80.1484 324.571L80.0791 324.485L80.0107 324.398C69.5669 311.053 62.249 294.437 57.6895 275.017L57.668 274.923C53.2895 255.582 51.208 231.491 51.208 202.911C51.208 173.698 53.8545 147.659 59.2998 124.92C64.7228 102.274 72.7658 83.5763 83.9941 69.627C95.6673 55.125 110.652 47.0001 128.498 47C146.991 47 162.125 55.8777 173.558 71.3779V57.3721H337.042V82.3418C350.641 60.4838 368.591 47 391.204 47C413.987 47.0001 431.977 60.5046 445.462 82.4951C457.637 101.743 466.797 127.732 473.365 159.832C479.934 127.732 489.093 101.743 501.269 82.4951C514.879 60.5467 532.86 47.0001 555.526 47C578.274 47 596.244 60.4637 609.722 82.3945L610.352 83.3994C616.571 93.4154 621.992 105.215 626.675 118.713V57.3721H698.258C733.012 57.3721 756.838 83.4489 772.048 124.834V57.3721H840.792V119.049C845.642 105.002 851.29 92.7851 857.799 82.4951C871.409 60.5467 889.39 47 912.057 47C934.805 47 952.774 60.4637 966.252 82.3945L966.882 83.3994C980.061 104.625 989.659 133.861 996.229 170.29C1002.94 207.068 1006.24 250.393 1006.24 300.148C1006.24 349.904 1002.94 393.229 996.229 430.007C989.551 466.61 979.746 495.967 966.252 517.254L966.251 517.253C952.708 538.858 934.711 552 912.057 552C889.518 552 871.531 538.817 857.862 517.254C851.329 506.947 845.66 494.748 840.792 480.751V541.628H772.048V475.445C757.148 515.98 733.789 541.628 699.628 541.628H626.675V481.082C621.833 494.94 616.203 507.028 609.722 517.254L609.721 517.253C596.177 538.858 578.18 552 555.526 552C532.988 552 515.001 538.817 501.332 517.254C489.134 498.01 479.95 472.172 473.365 440.347C466.781 472.172 457.597 498.01 445.398 517.254C431.855 538.859 413.858 552 391.204 552C368.666 552 350.677 538.817 337.009 517.254C323.515 495.967 313.709 466.61 307.031 430.007C300.321 393.229 297.021 349.904 297.021 300.148C297.021 256.075 299.614 217.048 304.869 183.146H289.786V541.628H220.813V183.146H206.794C207.967 195.054 208.77 207.561 209.206 220.662L209.573 231.689L141.438 239.71L141.156 226.504C140.862 212.724 139.69 201.428 137.768 192.461C135.795 183.26 133.345 177.475 131.015 174.167L130.82 173.891L130.641 173.604C129.545 171.845 128.725 171.17 128.4 170.956C128.321 170.904 128.266 170.876 128.237 170.862C128.209 170.849 128.194 170.844 128.19 170.843C128.187 170.842 128.179 170.839 128.163 170.837C128.146 170.835 128.108 170.83 128.042 170.83C127.32 170.83 127.015 170.979 126.692 171.219C126.215 171.573 125.204 172.561 124.036 175.012C121.585 180.156 119.952 187.911 119.952 199.021Z" fill="black"/>
<path d="M132.367 540C117.452 540 104.744 533.301 94.2432 519.904C83.7419 506.507 75.5997 487.492 69.8164 462.858C64.0331 438.225 60.761 409.054 60 375.345L104.516 369.511C105.277 384.637 106.799 397.602 109.082 408.406C111.365 418.778 114.409 426.773 118.213 432.391C122.17 437.577 127.041 440.17 132.824 440.17C137.39 440.17 141.27 438.873 144.466 436.28C147.663 433.255 150.098 428.717 151.772 422.667C153.446 416.617 154.283 409.054 154.283 399.978C154.283 391.767 153.522 384.637 152 378.586C150.63 372.104 147.815 366.486 143.553 361.732C139.444 356.546 133.28 351.576 125.062 346.822C110.299 338.179 98.3523 328.239 89.2208 317.003C80.0893 305.334 73.3929 290.425 69.1315 272.274C65.0223 254.123 62.9677 231.002 62.9677 202.911C62.9677 174.388 65.555 149.323 70.7295 127.714C75.904 106.106 83.3614 89.2516 93.1017 77.1509C102.842 65.0503 114.561 59 128.258 59C142.716 59 154.816 65.9146 164.556 79.7439C174.296 93.5732 181.83 112.588 187.156 136.79C192.635 160.991 195.907 189.082 196.973 221.062L152.913 226.248C152.609 211.987 151.391 199.886 149.261 189.946C147.13 180.006 144.238 172.443 140.586 167.257C137.085 161.639 132.824 158.83 127.801 158.83C121.409 158.83 116.463 162.504 112.963 169.85C109.462 177.197 107.712 186.921 107.712 199.022C107.712 208.529 108.549 216.524 110.223 223.007C112.05 229.489 114.941 234.891 118.898 239.213C123.007 243.535 128.562 247.424 135.563 250.881C151.543 258.66 164.175 269.248 173.459 282.646C182.743 296.043 189.287 312.033 193.092 330.616C197.049 349.199 199.027 370.591 199.027 394.792C199.027 424.612 196.364 450.542 191.037 472.582C185.863 494.191 178.253 510.829 168.208 522.497C158.316 534.166 146.369 540 132.367 540Z" fill="black"/>
<path d="M232.573 529.628V171.147H185.317V69.372H324.801V171.147H277.546V529.628H232.573Z" fill="black"/>
<path d="M390.964 540C373.918 540 359.232 530.276 346.904 510.829C334.577 491.381 325.141 463.723 318.596 427.853C312.052 391.983 308.78 349.415 308.78 300.148C308.78 250.881 312.052 208.313 318.596 172.443C325.141 136.141 334.577 108.267 346.904 88.8194C359.232 68.9398 373.918 59 390.964 59C408.161 59 422.848 68.9398 435.023 88.8194C447.351 108.267 456.787 136.141 463.331 172.443C469.875 208.313 473.147 250.881 473.147 300.148C473.147 349.415 469.875 391.983 463.331 427.853C456.787 463.723 447.351 491.381 435.023 510.829C422.848 530.276 408.161 540 390.964 540ZM390.964 438.225C398.573 438.225 405.041 432.823 410.368 422.019C415.847 411.215 420.032 395.657 422.924 375.345C425.816 354.601 427.261 329.535 427.261 300.148C427.261 270.761 425.816 245.695 422.924 224.951C420.032 204.208 415.847 188.434 410.368 177.629C405.041 166.393 398.573 160.775 390.964 160.775C383.354 160.775 376.81 166.393 371.331 177.629C366.004 188.434 361.895 204.208 359.003 224.951C356.112 245.695 354.666 270.761 354.666 300.148C354.666 329.535 356.112 354.601 359.003 375.345C361.895 395.657 366.004 411.215 371.331 422.019C376.81 432.823 383.354 438.225 390.964 438.225Z" fill="black"/>
<path d="M555.286 540C538.241 540 523.554 530.276 511.227 510.829C498.899 491.381 489.463 463.723 482.919 427.853C476.375 391.983 473.103 349.415 473.103 300.148C473.103 250.881 476.375 208.313 482.919 172.443C489.463 136.141 498.899 108.267 511.227 88.8194C523.554 68.9398 538.241 59 555.286 59C572.484 59 587.171 68.9398 599.346 88.8194C611.673 108.267 621.109 136.141 627.654 172.443C634.198 208.313 637.47 250.881 637.47 300.148C637.47 349.415 634.198 391.983 627.654 427.853C621.109 463.723 611.673 491.381 599.346 510.829C587.171 530.276 572.484 540 555.286 540ZM555.286 438.225C562.896 438.225 569.364 432.823 574.691 422.019C580.17 411.215 584.355 395.657 587.247 375.345C590.138 354.601 591.584 329.535 591.584 300.148C591.584 270.761 590.138 245.695 587.247 224.951C584.355 204.208 580.17 188.434 574.691 177.629C569.364 166.393 562.896 160.775 555.286 160.775C547.677 160.775 541.132 166.393 535.654 177.629C530.327 188.434 526.218 204.208 523.326 224.951C520.434 245.695 518.989 270.761 518.989 300.148C518.989 329.535 520.434 354.601 523.326 375.345C526.218 395.657 530.327 411.215 535.654 422.019C541.132 432.823 547.677 438.225 555.286 438.225Z" fill="black"/>
<path d="M638.435 529.628V69.372H698.018C725.26 69.372 746.187 89.4676 760.797 129.659C775.407 169.418 782.713 226.248 782.713 300.148C782.713 373.616 775.483 430.23 761.025 469.989C746.719 509.748 726.173 529.628 699.388 529.628H638.435ZM683.179 427.853H698.018C711.563 427.853 721.379 417.481 727.467 396.737C733.707 375.993 736.827 343.581 736.827 299.5C736.827 255.419 733.707 223.007 727.467 202.263C721.379 181.519 711.563 171.147 698.018 171.147H683.179V427.853Z" fill="black"/>
<path d="M783.808 529.628V69.372H828.552V529.628H783.808Z" fill="black"/>
<path d="M911.816 540C894.771 540 880.084 530.276 867.757 510.829C855.429 491.381 845.993 463.723 839.449 427.853C832.905 391.983 829.633 349.415 829.633 300.148C829.633 250.881 832.905 208.313 839.449 172.443C845.993 136.141 855.429 108.267 867.757 88.8194C880.084 68.9398 894.771 59 911.816 59C929.014 59 943.701 68.9398 955.876 88.8194C968.204 108.267 977.639 136.141 984.184 172.443C990.728 208.313 994 250.881 994 300.148C994 349.415 990.728 391.983 984.184 427.853C977.639 463.723 968.204 491.381 955.876 510.829C943.701 530.276 929.014 540 911.816 540ZM911.816 438.225C919.426 438.225 925.894 432.823 931.221 422.019C936.7 411.215 940.885 395.657 943.777 375.345C946.668 354.601 948.114 329.535 948.114 300.148C948.114 270.761 946.668 245.695 943.777 224.951C940.885 204.208 936.7 188.434 931.221 177.629C925.894 166.393 919.426 160.775 911.816 160.775C904.207 160.775 897.663 166.393 892.184 177.629C886.857 188.434 882.748 204.208 879.856 224.951C876.964 245.695 875.519 270.761 875.519 300.148C875.519 329.535 876.964 354.601 879.856 375.345C882.748 395.657 886.857 411.215 892.184 422.019C897.663 432.823 904.207 438.225 911.816 438.225Z" fill="black"/>
<path d="M64.9521 165.021C64.9522 151.931 66.8201 140.238 71.3701 130.688C76.2085 120.534 84.6773 112.83 97.042 112.83C107.369 112.83 114.908 118.882 119.819 126.613C124.692 133.645 127.974 142.885 130.234 153.431C131.849 160.961 132.949 169.442 133.58 178.819L153.754 176.445C153.268 166.947 152.572 157.848 151.671 149.146H142.558V96.5C137.668 77.6024 131.37 63.139 123.985 52.6543C116.055 41.3947 107.35 37 97.498 37C87.9502 37.0001 79.4967 40.9766 71.6895 50.6758C63.4375 60.9276 56.5656 75.9387 51.6396 96.5088C46.7359 116.986 44.208 141.079 44.208 168.911C44.208 196.489 46.2319 218.625 50.0654 235.581C54.0175 252.389 60.0649 265.549 67.8438 275.521C75.9012 285.411 86.6347 294.42 100.311 302.435C109.186 307.569 116.624 313.349 121.969 319.993C127.509 326.267 131.161 333.652 132.938 341.913C134.719 349.103 135.523 357.175 135.523 365.979C135.523 375.7 134.636 384.425 132.577 391.867C130.556 399.172 127.276 405.959 121.956 410.995L121.623 411.311L121.268 411.599C115.698 416.118 109.063 418.17 102.064 418.17C92.0241 418.17 83.8084 413.396 77.9131 405.67L77.708 405.4L77.5176 405.12C72.5181 397.738 69.048 388.096 66.6025 376.985L66.5918 376.936L66.5811 376.887C64.8359 368.627 63.5367 359.341 62.6494 349.068L41.5752 351.83C42.7218 380.375 45.8066 405.106 50.7393 426.116C56.3012 449.807 63.8956 466.978 72.9277 478.501C81.5183 489.461 90.9323 494 101.607 494C111.73 494 120.445 489.998 128.296 480.737L128.324 480.703L128.354 480.668C136.723 470.947 143.695 456.304 148.607 435.788L148.61 435.775L148.613 435.764C153.66 414.883 156.268 389.941 156.268 360.792C156.268 337.215 154.337 316.689 150.595 299.115L150.585 299.069L150.576 299.022C147.044 281.771 141.057 267.344 132.836 255.48C124.829 243.926 113.852 234.633 99.5508 227.671L99.5205 227.656L99.4902 227.641C91.5942 223.741 84.7727 219.087 79.4424 213.481L79.3643 213.399L79.2881 213.316C73.8875 207.418 70.1718 200.278 67.9131 192.261L67.8779 192.135L67.8447 192.007C65.8364 184.23 64.9521 175.155 64.9521 165.021ZM951.24 266.148C951.24 217.371 947.998 175.559 941.619 140.598L941.616 140.585L941.614 140.572C935.199 104.987 926.128 78.8304 914.98 61.2441L914.932 61.166L914.883 61.0869C904.021 43.3518 892.649 37 881.057 37C869.632 37 858.24 43.3329 847.195 61.1436L847.164 61.1943L847.133 61.2441C835.985 78.8304 826.914 104.987 820.499 140.572L820.497 140.585L820.494 140.598C814.116 175.559 810.873 217.371 810.873 266.148C810.873 314.926 814.116 356.738 820.494 391.699C826.905 426.835 835.971 452.796 847.133 470.404C858.119 487.736 869.504 494 881.057 494C892.778 494 904.142 487.717 914.945 470.461L914.98 470.404C926.142 452.796 935.209 426.835 941.619 391.699C947.998 356.738 951.24 314.926 951.24 266.148ZM619.675 483.628H668.628C687.649 483.628 705.237 470.106 718.975 431.927L718.981 431.907L718.988 431.889C732.741 394.07 739.953 339.091 739.953 266.148C739.953 192.771 732.663 137.596 718.773 99.7979L718.767 99.7783L718.759 99.7588C704.735 61.182 686.786 47.3721 667.258 47.3721H619.675V483.628ZM765.048 483.628H785.792V47.3721H765.048V483.628ZM166.558 93.5186C167.092 95.6904 167.606 97.8978 168.101 100.141L168.627 102.506C170.209 109.747 171.598 117.295 172.8 125.146H213.813V483.628H234.786V125.146H278.186C279.385 119.336 280.67 113.727 282.042 108.323V47.3721H166.558V93.5186ZM384.502 266.148C384.502 237.113 383.071 212.634 380.279 192.608C377.458 172.367 373.502 158.119 368.906 149.057L368.834 148.914L368.766 148.77C364.058 138.839 360.669 138.775 360.204 138.775C359.675 138.775 356.218 138.92 351.357 148.889L351.334 148.936C346.843 158.045 342.954 172.342 340.129 192.608C337.337 212.634 335.906 237.113 335.906 266.148C335.906 295.167 337.336 319.634 340.124 339.653L340.392 341.494C343.181 360.293 346.95 373.793 351.303 382.649C356.035 391.955 359.428 392.225 360.204 392.225C360.92 392.225 364.252 392.031 368.846 382.713L368.875 382.651L368.906 382.592C373.519 373.497 377.468 359.435 380.284 339.653C383.072 319.634 384.502 295.167 384.502 266.148ZM548.824 266.148C548.824 237.113 547.393 212.634 544.602 192.608C541.78 172.367 537.824 158.119 533.229 149.057L533.156 148.914L533.088 148.77C528.38 138.839 524.991 138.775 524.526 138.775C523.997 138.775 520.54 138.921 515.68 148.889L515.668 148.912L515.657 148.936C511.166 158.045 507.276 172.342 504.451 192.608C501.66 212.634 500.229 237.113 500.229 266.148C500.229 295.167 501.658 319.634 504.446 339.653C507.26 359.416 511.133 373.507 515.627 382.649C520.359 391.954 523.75 392.225 524.526 392.225C525.242 392.225 528.574 392.031 533.168 382.713L533.198 382.651L533.229 382.592C537.841 373.496 541.79 359.435 544.606 339.653C547.395 319.634 548.824 295.167 548.824 266.148ZM905.354 266.148C905.354 237.113 903.923 212.634 901.132 192.608C898.31 172.367 894.355 158.119 889.759 149.057L889.687 148.914L889.618 148.77C884.91 138.839 881.521 138.775 881.057 138.775C880.528 138.775 877.071 138.92 872.21 148.889L872.187 148.936C867.695 158.045 863.807 172.342 860.981 192.608C858.19 212.634 856.759 237.113 856.759 266.148C856.759 295.167 858.188 319.634 860.977 339.653C863.788 359.399 867.656 373.483 872.145 382.627C876.883 391.954 880.28 392.225 881.057 392.225C881.772 392.225 885.104 392.031 889.698 382.713L889.729 382.651L889.759 382.592C894.371 373.496 898.321 359.435 901.137 339.653C903.925 319.634 905.354 295.167 905.354 266.148ZM694.067 265.5C694.067 221.642 690.925 190.699 685.216 171.72L685.192 171.642C682.432 162.236 679.167 156.454 676.063 153.175C673.284 150.238 670.538 149.146 667.258 149.146H664.419V381.854H667.258C670.538 381.854 673.284 380.762 676.063 377.825C679.167 374.546 682.432 368.764 685.192 359.358L685.216 359.28C690.925 340.301 694.067 309.358 694.067 265.5ZM290.021 266.148C290.021 314.926 293.263 356.738 299.642 391.699C306.052 426.835 315.118 452.796 326.279 470.404C337.266 487.736 348.652 494 360.204 494C371.925 494 383.29 487.717 394.093 470.461L394.128 470.404C405.289 452.796 414.355 426.835 420.766 391.699C426.854 358.327 430.083 318.713 430.364 272.757C430.351 270.567 430.343 268.364 430.343 266.148C430.343 263.933 430.351 261.729 430.364 259.539C430.083 213.583 426.854 173.97 420.766 140.598L420.762 140.572C414.347 104.987 405.276 78.8304 394.128 61.2441L394.079 61.166L394.03 61.0869C383.168 43.3519 371.797 37 360.204 37C348.78 37 337.387 43.3329 326.343 61.1436L326.312 61.1943L326.279 61.2441C318.437 73.6155 311.627 90.2293 306.042 111.382V149.146H298.17C292.767 182.314 290.021 221.285 290.021 266.148ZM408.502 266.148C408.502 295.888 407.042 321.54 404.05 343.002L404.047 343.02L404.045 343.036C401.087 363.811 396.683 380.822 390.37 393.324L390.371 393.325C384.312 405.615 374.708 416.225 360.204 416.225C345.762 416.225 336.079 405.692 329.869 393.446L329.838 393.386L329.809 393.325C323.662 380.858 319.327 363.852 316.363 343.036L316.361 343.02L316.358 343.002C313.367 321.54 311.906 295.888 311.906 266.148C311.906 236.409 313.367 210.757 316.358 189.295C319.313 168.1 323.635 150.865 329.785 138.37L330.367 137.202C336.489 125.184 345.973 114.775 360.204 114.775C374.925 114.775 384.462 125.896 390.41 138.402C396.718 150.931 401.104 168.161 404.05 189.295C407.042 210.757 408.502 236.409 408.502 266.148ZM454.388 266.148C454.388 268.364 454.378 270.567 454.365 272.757C454.646 318.713 457.876 358.327 463.965 391.699C470.375 426.835 479.441 452.796 490.603 470.404C501.589 487.736 512.974 494 524.526 494C536.248 494 547.612 487.717 558.415 470.461L558.433 470.433L558.451 470.404C569.613 452.796 578.679 426.835 585.089 391.699C591.467 356.738 594.71 314.926 594.71 266.148C594.71 217.371 591.467 175.559 585.089 140.598L585.086 140.585L585.084 140.572C578.669 104.987 569.599 78.8304 558.451 61.2441L558.401 61.166L558.353 61.0869C547.491 43.3519 536.119 37 524.526 37C513.102 37.0001 501.71 43.333 490.665 61.1436L490.634 61.1943L490.603 61.2441C479.455 78.8304 470.384 104.987 463.969 140.572L463.965 140.598C457.876 173.97 454.646 213.583 454.365 259.539C454.378 261.729 454.388 263.933 454.388 266.148ZM572.824 266.148C572.824 295.888 571.364 321.54 568.372 343.002L568.369 343.02L568.367 343.036C565.4 363.878 560.979 380.933 554.634 393.446L554.633 393.445C548.57 405.684 538.983 416.225 524.526 416.225C510.085 416.225 500.401 405.692 494.191 393.446L494.131 393.325C487.984 380.858 483.65 363.852 480.687 343.036L480.684 343.02L480.682 343.002C477.69 321.54 476.229 295.888 476.229 266.148C476.229 236.409 477.69 210.757 480.682 189.295C483.636 168.1 487.957 150.865 494.107 138.37L494.689 137.202C500.811 125.184 510.295 114.775 524.526 114.775C539.214 114.775 548.74 125.847 554.691 138.319C561.022 150.855 565.42 168.114 568.372 189.295C571.364 210.757 572.824 236.409 572.824 266.148ZM929.354 266.148C929.354 295.888 927.894 321.54 924.902 343.002L924.899 343.02L924.897 343.036C921.93 363.878 917.51 380.933 911.164 393.446L911.162 393.445C905.1 405.684 895.513 416.225 881.057 416.225C866.615 416.225 856.932 405.692 850.722 393.446L850.69 393.386L850.661 393.325C844.515 380.858 840.179 363.852 837.216 343.036L837.214 343.02L837.211 343.002C834.219 321.54 832.759 295.888 832.759 266.148C832.759 236.409 834.219 210.757 837.211 189.295C840.165 168.1 844.488 150.865 850.638 138.37L851.22 137.202C857.342 125.184 866.825 114.775 881.057 114.775C895.748 114.775 905.276 125.852 911.227 138.328C917.554 150.863 921.951 168.12 924.902 189.295C927.894 210.757 929.354 236.409 929.354 266.148ZM718.067 265.5C718.067 309.752 714.975 343.606 708.221 366.115L708.222 366.116C704.894 377.455 700.207 387.231 693.495 394.323C686.459 401.758 677.523 405.854 667.258 405.854H640.419V125.146H667.258C677.523 125.146 686.459 129.242 693.495 136.677C700.207 143.769 704.894 153.545 708.222 164.884C714.976 187.393 718.067 221.248 718.067 265.5ZM88.9521 165.021C88.9521 173.83 89.7301 180.704 91.0498 185.877C92.4301 190.716 94.4593 194.318 96.9199 197.031C99.8069 200.041 104.071 203.136 110.117 206.122C127.748 214.716 142.014 226.589 152.562 241.811C162.893 256.718 169.988 274.241 174.068 294.117C178.24 313.709 180.268 335.967 180.268 360.792C180.268 391.271 177.549 418.182 171.946 441.376L171.947 441.377C166.52 464.039 158.29 482.647 146.601 496.257L146.602 496.258C134.668 510.334 119.488 518 101.607 518C82.4531 518 66.4509 509.142 54.0391 493.308C42.069 478.037 33.3786 457.177 27.374 431.602C21.3496 405.941 18.0171 375.901 17.2432 341.616L17 330.847L85.0879 321.923L85.7412 334.908C86.4788 349.568 87.9389 361.838 90.042 371.826L90.4453 373.594C92.4311 381.996 94.8026 387.714 97.1797 391.347C99.1078 393.781 100.585 394.17 102.064 394.17C103.9 394.17 104.99 393.767 105.782 393.23C106.834 392.081 108.248 389.796 109.446 385.467C110.735 380.809 111.523 374.408 111.523 365.979C111.523 358.463 110.822 352.361 109.603 347.514L109.547 347.291L109.499 347.067C108.547 342.561 106.662 338.869 103.858 335.741L103.614 335.47L103.388 335.185C100.529 331.577 95.7273 327.51 88.2939 323.21L88.2666 323.193L88.2393 323.178C72.4557 313.937 59.3355 303.106 49.1484 290.571L49.0791 290.485L49.0107 290.398C38.5669 277.053 31.249 260.437 26.6895 241.017L26.668 240.923C22.2895 221.582 20.208 197.491 20.208 168.911C20.208 139.698 22.8545 113.659 28.2998 90.9199C33.7228 68.2739 41.7658 49.5763 52.9941 35.627C64.6673 21.125 79.6515 13.0001 97.498 13C115.991 13 131.125 21.8777 142.558 37.3779V23.3721H306.042V48.3418C319.641 26.4838 337.591 13 360.204 13C382.987 13.0001 400.977 26.5046 414.462 48.4951C426.637 67.7427 435.797 93.7315 442.365 125.832C448.934 93.7315 458.093 67.7427 470.269 48.4951C483.879 26.5467 501.86 13.0001 524.526 13C547.274 13 565.244 26.4637 578.722 48.3945L579.352 49.3994C585.571 59.4154 590.992 71.2153 595.675 84.7129V23.3721H667.258C702.012 23.3721 725.838 49.4489 741.048 90.834V23.3721H809.792V85.0488C814.642 71.0016 820.29 58.7851 826.799 48.4951C840.409 26.5467 858.39 13 881.057 13C903.805 13 921.774 26.4637 935.252 48.3945L935.882 49.3994C949.061 70.6249 958.659 99.861 965.229 136.29C971.938 173.068 975.24 216.393 975.24 266.148C975.24 315.904 971.939 359.229 965.229 396.007C958.551 432.61 948.746 461.967 935.252 483.254L935.251 483.253C921.708 504.858 903.711 518 881.057 518C858.518 518 840.531 504.817 826.862 483.254C820.329 472.947 814.66 460.748 809.792 446.751V507.628H741.048V441.445C726.148 481.98 702.789 507.628 668.628 507.628H595.675V447.082C590.833 460.94 585.203 473.028 578.722 483.254L578.721 483.253C565.177 504.858 547.18 518 524.526 518C501.988 518 484.001 504.817 470.332 483.254C458.134 464.01 448.95 438.172 442.365 406.347C435.781 438.172 426.597 464.01 414.398 483.254C400.855 504.859 382.858 518 360.204 518C337.666 518 319.677 504.817 306.009 483.254C292.515 461.967 282.709 432.61 276.031 396.007C269.321 359.229 266.021 315.904 266.021 266.148C266.021 222.075 268.614 183.048 273.869 149.146H258.786V507.628H189.813V149.146H175.794C176.967 161.054 177.77 173.561 178.206 186.662L178.573 197.689L110.438 205.71L110.156 192.504C109.862 178.724 108.69 167.428 106.768 158.461C104.795 149.26 102.345 143.475 100.015 140.167L99.8203 139.891L99.6406 139.604C98.5448 137.845 97.7254 137.17 97.4004 136.956C97.3211 136.904 97.2665 136.876 97.2373 136.862C97.2088 136.849 97.1943 136.844 97.1904 136.843C97.1867 136.842 97.1791 136.839 97.1631 136.837C97.1464 136.835 97.1079 136.83 97.042 136.83C96.3196 136.83 96.015 136.979 95.6924 137.219C95.2154 137.573 94.204 138.561 93.0361 141.012C90.5853 146.156 88.9522 153.911 88.9521 165.021Z" fill="black"/>
<path d="M101.367 506C86.4524 506 73.7444 499.301 63.2432 485.904C52.7419 472.507 44.5997 453.492 38.8164 428.858C33.0331 404.225 29.761 375.054 29 341.345L73.5161 335.511C74.2771 350.637 75.799 363.602 78.0819 374.406C80.3647 384.778 83.4086 392.773 87.2134 398.391C91.1704 403.577 96.0405 406.17 101.824 406.17C106.39 406.17 110.27 404.873 113.466 402.28C116.663 399.255 119.098 394.717 120.772 388.667C122.446 382.617 123.283 375.054 123.283 365.978C123.283 357.767 122.522 350.637 121 344.586C119.63 338.104 116.815 332.486 112.553 327.732C108.444 322.546 102.28 317.576 94.062 312.822C79.2994 304.179 67.3523 294.239 58.2208 283.003C49.0893 271.334 42.3929 256.425 38.1315 238.274C34.0223 220.123 31.9677 197.002 31.9677 168.911C31.9677 140.388 34.555 115.323 39.7295 93.7143C44.904 72.106 52.3614 55.2516 62.1017 43.1509C71.842 31.0503 83.5608 25 97.258 25C111.716 25 123.816 31.9146 133.556 45.7439C143.296 59.5732 150.83 78.5885 156.156 102.79C161.635 126.991 164.907 155.082 165.973 187.062L121.913 192.248C121.609 177.987 120.391 165.886 118.261 155.946C116.13 146.006 113.238 138.443 109.586 133.257C106.085 127.639 101.824 124.83 96.8015 124.83C90.4094 124.83 85.4632 128.504 81.9628 135.85C78.4623 143.197 76.7121 152.921 76.7121 165.022C76.7121 174.529 77.5492 182.524 79.2233 189.007C81.0496 195.489 83.9413 200.891 87.8982 205.213C92.0074 209.535 97.5624 213.424 104.563 216.881C120.543 224.66 133.175 235.248 142.459 248.646C151.743 262.043 158.287 278.033 162.092 296.616C166.049 315.199 168.027 336.591 168.027 360.792C168.027 390.612 165.364 416.542 160.037 438.582C154.863 460.191 147.253 476.829 137.208 488.497C127.316 500.166 115.369 506 101.367 506Z" fill="#FFDB33"/>
<path d="M201.573 495.628V137.147H154.317V35.372H293.801V137.147H246.546V495.628H201.573Z" fill="#FFDB33"/>
<path d="M359.964 506C342.918 506 328.232 496.276 315.904 476.829C303.577 457.381 294.141 429.723 287.597 393.853C281.052 357.983 277.78 315.415 277.78 266.148C277.78 216.881 281.052 174.313 287.597 138.443C294.141 102.141 303.577 74.2668 315.904 54.8194C328.232 34.9398 342.918 25 359.964 25C377.161 25 391.848 34.9398 404.023 54.8194C416.351 74.2668 425.787 102.141 432.331 138.443C438.875 174.313 442.147 216.881 442.147 266.148C442.147 315.415 438.875 357.983 432.331 393.853C425.787 429.723 416.351 457.381 404.023 476.829C391.848 496.276 377.161 506 359.964 506ZM359.964 404.225C367.573 404.225 374.041 398.823 379.368 388.019C384.847 377.215 389.032 361.657 391.924 341.345C394.816 320.601 396.261 295.535 396.261 266.148C396.261 236.761 394.816 211.695 391.924 190.951C389.032 170.208 384.847 154.434 379.368 143.629C374.041 132.393 367.573 126.775 359.964 126.775C352.354 126.775 345.81 132.393 340.331 143.629C335.004 154.434 330.895 170.208 328.003 190.951C325.112 211.695 323.666 236.761 323.666 266.148C323.666 295.535 325.112 320.601 328.003 341.345C330.895 361.657 335.004 377.215 340.331 388.019C345.81 398.823 352.354 404.225 359.964 404.225Z" fill="#FFDB33"/>
<path d="M524.286 506C507.241 506 492.554 496.276 480.227 476.829C467.899 457.381 458.463 429.723 451.919 393.853C445.375 357.983 442.103 315.415 442.103 266.148C442.103 216.881 445.375 174.313 451.919 138.443C458.463 102.141 467.899 74.2668 480.227 54.8194C492.554 34.9398 507.241 25 524.286 25C541.484 25 556.171 34.9398 568.346 54.8194C580.673 74.2668 590.109 102.141 596.654 138.443C603.198 174.313 606.47 216.881 606.47 266.148C606.47 315.415 603.198 357.983 596.654 393.853C590.109 429.723 580.673 457.381 568.346 476.829C556.171 496.276 541.484 506 524.286 506ZM524.286 404.225C531.896 404.225 538.364 398.823 543.691 388.019C549.17 377.215 553.355 361.657 556.247 341.345C559.138 320.601 560.584 295.535 560.584 266.148C560.584 236.761 559.138 211.695 556.247 190.951C553.355 170.208 549.17 154.434 543.691 143.629C538.364 132.393 531.896 126.775 524.286 126.775C516.677 126.775 510.132 132.393 504.654 143.629C499.327 154.434 495.218 170.208 492.326 190.951C489.434 211.695 487.989 236.761 487.989 266.148C487.989 295.535 489.434 320.601 492.326 341.345C495.218 361.657 499.327 377.215 504.654 388.019C510.132 398.823 516.677 404.225 524.286 404.225Z" fill="#FFDB33"/>
<path d="M607.435 495.628V35.372H667.018C694.26 35.372 715.187 55.4676 729.797 95.659C744.407 135.418 751.713 192.248 751.713 266.148C751.713 339.616 744.483 396.23 730.025 435.989C715.719 475.748 695.173 495.628 668.388 495.628H607.435ZM652.179 393.853H667.018C680.563 393.853 690.379 383.481 696.467 362.737C702.707 341.993 705.827 309.581 705.827 265.5C705.827 221.419 702.707 189.007 696.467 168.263C690.379 147.519 680.563 137.147 667.018 137.147H652.179V393.853Z" fill="#FFDB33"/>
<path d="M752.808 495.628V35.372H797.552V495.628H752.808Z" fill="#FFDB33"/>
<path d="M880.816 506C863.771 506 849.084 496.276 836.757 476.829C824.429 457.381 814.993 429.723 808.449 393.853C801.905 357.983 798.633 315.415 798.633 266.148C798.633 216.881 801.905 174.313 808.449 138.443C814.993 102.141 824.429 74.2668 836.757 54.8194C849.084 34.9398 863.771 25 880.816 25C898.014 25 912.701 34.9398 924.876 54.8194C937.204 74.2668 946.639 102.141 953.184 138.443C959.728 174.313 963 216.881 963 266.148C963 315.415 959.728 357.983 953.184 393.853C946.639 429.723 937.204 457.381 924.876 476.829C912.701 496.276 898.014 506 880.816 506ZM880.816 404.225C888.426 404.225 894.894 398.823 900.221 388.019C905.7 377.215 909.885 361.657 912.777 341.345C915.668 320.601 917.114 295.535 917.114 266.148C917.114 236.761 915.668 211.695 912.777 190.951C909.885 170.208 905.7 154.434 900.221 143.629C894.894 132.393 888.426 126.775 880.816 126.775C873.207 126.775 866.663 132.393 861.184 143.629C855.857 154.434 851.748 170.208 848.856 190.951C845.965 211.695 844.519 236.761 844.519 266.148C844.519 295.535 845.965 320.601 848.856 341.345C851.748 361.657 855.857 377.215 861.184 388.019C866.663 398.823 873.207 404.225 880.816 404.225Z" fill="#FFDB33"/>
</svg>
